<svg xmlns="http://www.w3.org/2000/svg" xmlns:xlink="http://www.w3.org/1999/xlink" width="800" zoomAndPan="magnify" viewBox="0 0 600 599.999999" height="800" preserveAspectRatio="xMidYMid meet" version="1.0"><defs><clipPath id="id1"><path d="M 243 67.121094 L 276 67.121094 L 276 105 L 243 105 Z M 243 67.121094 " clip-rule="nonzero"/></clipPath><clipPath id="id2"><path d="M 190 67.121094 L 211 67.121094 L 211 94 L 190 94 Z M 190 67.121094 " clip-rule="nonzero"/></clipPath></defs><path fill="#b6c2e8" d="M 496.136719 289.347656 C 496.136719 401 405.664062 491.507812 294.0625 491.507812 C 182.460938 491.507812 91.988281 401 91.988281 289.347656 C 91.988281 177.695312 182.460938 87.1875 294.0625 87.1875 C 405.664062 87.1875 496.136719 177.695312 496.136719 289.347656 " fill-opacity="1" fill-rule="nonzero"/><path fill="#aab8dc" d="M 566.617188 250.488281 C 570.519531 257.214844 569.785156 265.972656 564.230469 271.980469 L 439.695312 406.730469 C 432.871094 414.113281 421.351562 414.566406 413.980469 407.738281 L 364.144531 361.632812 C 357.917969 355.871094 356.625 346.765625 360.476562 339.625 C 354.277344 347.191406 357.238281 361.824219 364.441406 368.484375 L 414.273438 414.589844 C 421.652344 421.414062 433.164062 420.964844 439.988281 413.582031 L 564.527344 278.832031 C 571.035156 271.792969 572.867188 257.699219 566.617188 250.488281 " fill-opacity="1" fill-rule="nonzero"/><path fill="#ebf1fa" d="M 550.984375 270.992188 C 544.070312 278.480469 532.199219 278.757812 524.476562 271.613281 C 516.757812 264.472656 516.109375 252.613281 523.027344 245.128906 C 529.945312 237.640625 541.816406 237.359375 549.535156 244.5 C 557.257812 251.644531 557.90625 263.503906 550.984375 270.992188 Z M 523.714844 300.375 C 516.796875 307.863281 504.925781 308.140625 497.207031 301 C 489.488281 293.859375 488.835938 281.996094 495.757812 274.507812 C 502.675781 267.023438 514.542969 266.742188 522.265625 273.886719 C 529.984375 281.027344 530.632812 292.890625 523.714844 300.375 Z M 496.445312 329.761719 C 489.519531 337.25 477.652344 337.527344 469.933594 330.382812 C 462.214844 323.242188 461.566406 311.382812 468.484375 303.894531 C 475.40625 296.40625 487.277344 296.125 494.992188 303.269531 C 502.714844 310.414062 503.363281 322.273438 496.445312 329.761719 Z M 468.773438 359.578125 C 461.851562 367.0625 449.980469 367.34375 442.257812 360.199219 C 434.542969 353.058594 433.890625 341.195312 440.8125 333.710938 C 447.734375 326.222656 459.601562 325.941406 467.324219 333.085938 C 475.042969 340.226562 475.691406 352.089844 468.773438 359.578125 Z M 441.5 388.960938 C 434.578125 396.445312 422.714844 396.726562 414.992188 389.585938 C 407.273438 382.441406 406.625 370.578125 413.539062 363.09375 C 420.460938 355.605469 432.332031 355.324219 440.046875 362.46875 C 447.769531 369.613281 448.417969 381.472656 441.5 388.960938 Z M 381.265625 358.253906 C 373.546875 351.113281 372.898438 339.253906 379.820312 331.765625 C 386.734375 324.28125 398.605469 324 406.328125 331.140625 C 414.042969 338.285156 414.695312 350.144531 407.777344 357.632812 C 400.855469 365.121094 388.988281 365.398438 381.265625 358.253906 Z M 463.480469 269.671875 C 455.761719 262.53125 455.113281 250.667969 462.035156 243.183594 C 468.953125 235.695312 480.824219 235.417969 488.542969 242.558594 C 496.261719 249.699219 496.914062 261.5625 489.992188 269.050781 C 483.070312 276.535156 471.203125 276.816406 463.480469 269.671875 Z M 435.046875 328.25 C 428.125 335.734375 416.261719 336.015625 408.539062 328.871094 C 400.816406 321.730469 400.171875 309.871094 407.085938 302.382812 C 414.007812 294.894531 425.878906 294.613281 433.597656 301.757812 C 441.316406 308.902344 441.964844 320.761719 435.046875 328.25 Z M 436.207031 299.054688 C 428.488281 291.914062 427.839844 280.054688 434.761719 272.566406 C 441.679688 265.078125 453.550781 264.800781 461.269531 271.941406 C 468.992188 279.085938 469.640625 290.945312 462.714844 298.433594 C 455.800781 305.921875 443.929688 306.199219 436.207031 299.054688 Z M 515.808594 213.175781 C 523.53125 220.316406 524.179688 232.179688 517.265625 239.667969 C 510.339844 247.15625 498.472656 247.433594 490.753906 240.289062 C 483.035156 233.144531 482.386719 221.285156 489.304688 213.796875 C 496.222656 206.308594 508.089844 206.03125 515.808594 213.175781 Z M 364.140625 361.632812 L 413.972656 407.738281 C 421.355469 414.566406 432.867188 414.113281 439.691406 406.730469 L 564.226562 271.980469 C 569.78125 265.972656 570.519531 257.21875 566.617188 250.492188 C 565.726562 248.953125 564.59375 247.523438 563.222656 246.257812 L 513.390625 200.152344 C 506.015625 193.320312 494.5 193.773438 487.675781 201.15625 L 363.136719 335.910156 C 362.074219 337.058594 361.1875 338.308594 360.476562 339.628906 C 356.625 346.765625 357.914062 355.871094 364.140625 361.632812 " fill-opacity="1" fill-rule="nonzero"/><path fill="#b6c2e8" d="M 549.246094 269.382812 C 543.183594 275.9375 532.796875 276.183594 526.035156 269.929688 C 519.277344 263.675781 518.710938 253.289062 524.769531 246.738281 C 530.828125 240.179688 541.214844 239.933594 547.976562 246.191406 C 554.738281 252.445312 555.304688 262.828125 549.246094 269.382812 Z M 549.535156 244.5 C 541.816406 237.359375 529.949219 237.636719 523.027344 245.125 C 516.109375 252.613281 516.757812 264.472656 524.476562 271.617188 C 532.195312 278.757812 544.066406 278.480469 550.984375 270.992188 C 557.90625 263.507812 557.253906 251.648438 549.535156 244.5 " fill-opacity="1" fill-rule="nonzero"/><path fill="#b6c2e8" d="M 521.976562 298.765625 C 515.917969 305.320312 505.527344 305.566406 498.765625 299.3125 C 492.007812 293.058594 491.441406 282.671875 497.5 276.121094 C 503.558594 269.5625 513.949219 269.320312 520.710938 275.570312 C 527.46875 281.828125 528.03125 292.210938 521.976562 298.765625 Z M 522.265625 273.882812 C 514.546875 266.742188 502.675781 267.023438 495.757812 274.511719 C 488.835938 281.996094 489.484375 293.859375 497.203125 301 C 504.925781 308.140625 516.796875 307.863281 523.71875 300.375 C 530.636719 292.890625 529.988281 281.03125 522.265625 273.882812 " fill-opacity="1" fill-rule="nonzero"/><path fill="#b6c2e8" d="M 494.703125 328.152344 C 488.640625 334.707031 478.253906 334.953125 471.492188 328.699219 C 464.730469 322.445312 464.164062 312.058594 470.222656 305.503906 C 476.28125 298.949219 486.675781 298.703125 493.429688 304.960938 C 500.191406 311.214844 500.757812 321.59375 494.703125 328.152344 Z M 494.992188 303.269531 C 487.273438 296.128906 475.402344 296.40625 468.484375 303.894531 C 461.5625 311.382812 462.210938 323.242188 469.929688 330.382812 C 477.652344 337.527344 489.519531 337.25 496.441406 329.761719 C 503.359375 322.273438 502.710938 310.414062 494.992188 303.269531 " fill-opacity="1" fill-rule="nonzero"/><path fill="#42a6cd" d="M 547.980469 246.1875 C 541.21875 239.933594 530.832031 240.179688 524.769531 246.734375 C 518.710938 253.289062 519.277344 263.675781 526.039062 269.929688 C 532.800781 276.183594 543.1875 275.9375 549.246094 269.382812 C 555.304688 262.824219 554.738281 252.441406 547.980469 246.1875 " fill-opacity="1" fill-rule="nonzero"/><path fill="#5f5eb4" d="M 520.710938 275.570312 C 513.949219 269.316406 503.558594 269.5625 497.5 276.121094 C 491.441406 282.675781 492.007812 293.058594 498.765625 299.3125 C 505.527344 305.566406 515.914062 305.320312 521.976562 298.765625 C 528.035156 292.210938 527.46875 281.824219 520.710938 275.570312 " fill-opacity="1" fill-rule="nonzero"/><path fill="#f68313" d="M 493.429688 304.957031 C 486.675781 298.707031 476.28125 298.949219 470.226562 305.503906 C 464.167969 312.058594 464.734375 322.441406 471.492188 328.699219 C 478.253906 334.949219 488.640625 334.707031 494.703125 328.152344 C 500.761719 321.59375 500.191406 311.210938 493.429688 304.957031 " fill-opacity="1" fill-rule="nonzero"/><path fill="#b6c2e8" d="M 467.03125 357.964844 C 460.972656 364.519531 450.582031 364.765625 443.820312 358.511719 C 437.0625 352.257812 436.5 341.875 442.554688 335.320312 C 448.613281 328.761719 459.003906 328.519531 465.765625 334.773438 C 472.523438 341.027344 473.089844 351.410156 467.03125 357.964844 Z M 467.324219 333.085938 C 459.601562 325.941406 447.734375 326.222656 440.8125 333.710938 C 433.894531 341.195312 434.542969 353.058594 442.261719 360.199219 C 449.984375 367.34375 461.851562 367.0625 468.769531 359.578125 C 475.691406 352.089844 475.042969 340.226562 467.324219 333.085938 " fill-opacity="1" fill-rule="nonzero"/><path fill="#b6c2e8" d="M 439.761719 387.347656 C 433.703125 393.902344 423.316406 394.148438 416.554688 387.894531 C 409.792969 381.640625 409.226562 371.253906 415.28125 364.703125 C 421.339844 358.144531 431.734375 357.902344 438.496094 364.15625 C 445.253906 370.410156 445.820312 380.792969 439.761719 387.347656 Z M 440.054688 362.46875 C 432.332031 355.324219 420.460938 355.605469 413.542969 363.09375 C 406.625 370.578125 407.273438 382.441406 414.996094 389.585938 C 422.714844 396.726562 434.582031 396.445312 441.503906 388.960938 C 448.421875 381.472656 447.773438 369.609375 440.054688 362.46875 " fill-opacity="1" fill-rule="nonzero"/><path fill="#992471" d="M 465.765625 334.773438 C 459.003906 328.519531 448.613281 328.761719 442.554688 335.320312 C 436.496094 341.871094 437.0625 352.257812 443.824219 358.511719 C 450.585938 364.765625 460.972656 364.519531 467.035156 357.964844 C 473.089844 351.410156 472.523438 341.027344 465.765625 334.773438 " fill-opacity="1" fill-rule="nonzero"/><path fill="#5c3e6b" d="M 438.492188 364.160156 C 431.726562 357.902344 421.339844 358.148438 415.28125 364.703125 C 409.222656 371.257812 409.789062 381.640625 416.550781 387.898438 C 423.3125 394.148438 433.699219 393.90625 439.757812 387.351562 C 445.816406 380.792969 445.25 370.414062 438.492188 364.160156 " fill-opacity="1" fill-rule="nonzero"/><path fill="#b6c2e8" d="M 491.042969 215.410156 C 497.101562 208.851562 507.492188 208.609375 514.25 214.863281 C 521.011719 221.117188 521.582031 231.5 515.523438 238.058594 C 509.460938 244.609375 499.074219 244.859375 492.308594 238.601562 C 485.554688 232.347656 484.984375 221.964844 491.042969 215.410156 Z M 490.75 240.289062 C 498.472656 247.433594 510.339844 247.15625 517.257812 239.664062 C 524.179688 232.179688 523.535156 220.320312 515.808594 213.175781 C 508.089844 206.03125 496.222656 206.3125 489.300781 213.800781 C 482.382812 221.285156 483.03125 233.144531 490.75 240.289062 " fill-opacity="1" fill-rule="nonzero"/><path fill="#b6c2e8" d="M 465.042969 267.988281 C 458.28125 261.734375 457.714844 251.34375 463.773438 244.792969 C 469.828125 238.234375 480.222656 237.996094 486.980469 244.246094 C 493.738281 250.5 494.3125 260.882812 488.25 267.4375 C 482.191406 273.996094 471.800781 274.238281 465.042969 267.988281 Z M 489.992188 269.050781 C 496.910156 261.5625 496.261719 249.703125 488.542969 242.558594 C 480.820312 235.414062 468.953125 235.695312 462.035156 243.183594 C 455.113281 250.671875 455.761719 262.53125 463.480469 269.671875 C 471.203125 276.816406 483.070312 276.539062 489.992188 269.050781 " fill-opacity="1" fill-rule="nonzero"/><path fill="#b6c2e8" d="M 437.773438 297.371094 C 431.015625 291.117188 430.445312 280.730469 436.5 274.175781 C 442.5625 267.617188 452.953125 267.375 459.710938 273.632812 C 466.472656 279.886719 467.039062 290.265625 460.980469 296.820312 C 454.921875 303.375 444.53125 303.625 437.773438 297.371094 Z M 462.71875 298.433594 C 469.640625 290.945312 468.992188 279.085938 461.273438 271.941406 C 453.550781 264.796875 441.683594 265.078125 434.765625 272.566406 C 427.839844 280.050781 428.492188 291.914062 436.210938 299.054688 C 443.933594 306.199219 455.800781 305.917969 462.71875 298.433594 " fill-opacity="1" fill-rule="nonzero"/><path fill="#fab938" d="M 492.3125 238.601562 C 499.070312 244.855469 509.464844 244.609375 515.523438 238.054688 C 521.582031 231.5 521.011719 221.117188 514.253906 214.859375 C 507.492188 208.609375 497.101562 208.851562 491.042969 215.40625 C 484.988281 221.964844 485.554688 232.347656 492.3125 238.601562 " fill-opacity="1" fill-rule="nonzero"/><path fill="#f14b62" d="M 488.253906 267.4375 C 494.3125 260.882812 493.742188 250.5 486.980469 244.246094 C 480.222656 237.992188 469.832031 238.234375 463.773438 244.792969 C 457.714844 251.34375 458.285156 261.730469 465.042969 267.988281 C 471.800781 274.238281 482.191406 273.996094 488.253906 267.4375 " fill-opacity="1" fill-rule="nonzero"/><path fill="#b3c43f" d="M 460.976562 296.824219 C 467.035156 290.269531 466.46875 279.886719 459.707031 273.632812 C 452.949219 267.378906 442.558594 267.621094 436.5 274.179688 C 430.441406 280.734375 431.011719 291.117188 437.769531 297.371094 C 444.527344 303.625 454.917969 303.378906 460.976562 296.824219 " fill-opacity="1" fill-rule="nonzero"/><path fill="#b6c2e8" d="M 433.304688 326.640625 C 427.246094 333.191406 416.859375 333.4375 410.097656 327.1875 C 403.339844 320.929688 402.769531 310.542969 408.828125 303.992188 C 414.886719 297.433594 425.277344 297.191406 432.035156 303.449219 C 438.796875 309.699219 439.367188 320.082031 433.304688 326.640625 Z M 433.597656 301.757812 C 425.878906 294.613281 414.007812 294.894531 407.089844 302.382812 C 400.167969 309.871094 400.816406 321.730469 408.539062 328.871094 C 416.257812 336.015625 428.125 335.734375 435.046875 328.25 C 441.964844 320.761719 441.316406 308.902344 433.597656 301.757812 " fill-opacity="1" fill-rule="nonzero"/><path fill="#b6c2e8" d="M 406.035156 356.023438 C 399.976562 362.578125 389.585938 362.824219 382.828125 356.566406 C 376.070312 350.316406 375.503906 339.929688 381.558594 333.375 C 387.617188 326.816406 398.007812 326.574219 404.765625 332.832031 C 411.527344 339.082031 412.09375 349.464844 406.035156 356.023438 Z M 406.324219 331.140625 C 398.605469 324 386.738281 324.28125 379.820312 331.765625 C 372.898438 339.253906 373.550781 351.113281 381.269531 358.253906 C 388.988281 365.398438 400.855469 365.121094 407.777344 357.632812 C 414.695312 350.144531 414.046875 338.285156 406.324219 331.140625 " fill-opacity="1" fill-rule="nonzero"/><path fill="#ffffff" d="M 432.039062 303.445312 C 425.277344 297.191406 414.886719 297.4375 408.832031 303.992188 C 402.773438 310.542969 403.339844 320.929688 410.097656 327.183594 C 416.859375 333.4375 427.25 333.195312 433.308594 326.636719 C 439.367188 320.082031 438.800781 309.699219 432.039062 303.445312 " fill-opacity="1" fill-rule="nonzero"/><path fill="#7c94d3" d="M 404.761719 332.832031 C 398.003906 326.578125 387.613281 326.820312 381.558594 333.378906 C 375.5 339.929688 376.066406 350.316406 382.824219 356.570312 C 389.582031 362.824219 399.972656 362.578125 406.035156 356.023438 C 412.09375 349.46875 411.523438 339.085938 404.761719 332.832031 " fill-opacity="1" fill-rule="nonzero"/><path fill="#fab938" d="M 310.398438 164.425781 L 313.710938 137.894531 L 291.863281 135.292969 C 291.960938 141.285156 292.179688 154.757812 292.328125 165.632812 C 298.3125 164.695312 304.371094 164.273438 310.398438 164.425781 " fill-opacity="1" fill-rule="nonzero"/><path fill="#ebf1fa" d="M 315.703125 138.128906 L 318.816406 118.5 L 289.679688 114.753906 L 289.425781 135 L 291.863281 135.292969 L 313.710938 137.894531 L 315.703125 138.128906 " fill-opacity="1" fill-rule="nonzero"/><path fill="#44354d" d="M 323.726562 99.203125 L 295.71875 95.621094 L 294.449219 104.207031 L 293.625 95.503906 L 289.085938 95.398438 L 289.679688 114.75 L 318.820312 118.496094 L 323.726562 99.203125 " fill-opacity="1" fill-rule="nonzero"/><g clip-path="url(#id1)"><path fill="#44354d" d="M 275.21875 68.035156 L 268.898438 67.746094 L 266.671875 75.0625 L 266.71875 68.078125 L 260.210938 68.378906 L 260.90625 75.664062 L 258.34375 68.941406 L 243.398438 71.507812 L 258.734375 104.734375 L 269.515625 103.621094 L 275.21875 68.035156 " fill-opacity="1" fill-rule="nonzero"/></g><path fill="#fab938" d="M 270.964844 122.804688 L 261.125 123.449219 L 265.726562 173.425781 C 268.140625 172.367188 270.605469 171.402344 273.105469 170.515625 L 270.964844 122.804688 " fill-opacity="1" fill-rule="nonzero"/><path fill="#ebf1fa" d="M 271.25 122.785156 L 270.777344 103.492188 L 269.511719 103.621094 L 258.730469 104.738281 L 257.390625 104.875 L 260.265625 123.5 L 261.125 123.445312 L 270.964844 122.800781 L 271.25 122.785156 " fill-opacity="1" fill-rule="nonzero"/><path fill="#ebf1fa" d="M 367.484375 204.386719 C 365.457031 192.320312 358.402344 182.910156 348.769531 176.804688 C 355.792969 182.761719 360.796875 190.839844 362.453125 200.691406 C 364.15625 210.808594 363.140625 221.191406 361.382812 231.292969 C 357.667969 252.625 350.429688 273.742188 337.238281 290.898438 C 322.695312 309.8125 301.796875 321.53125 278.011719 323.402344 C 261.703125 324.683594 244.621094 321.808594 228.238281 316.097656 C 215.941406 311.8125 204.1875 305.839844 193.628906 298.441406 C 205.429688 307.5625 218.980469 314.8125 233.269531 319.792969 C 249.648438 325.503906 266.730469 328.378906 283.039062 327.097656 C 306.828125 325.226562 327.722656 313.511719 342.265625 294.597656 C 355.457031 277.4375 362.695312 256.316406 366.414062 234.988281 C 368.167969 224.882812 369.183594 214.503906 367.484375 204.386719 " fill-opacity="1" fill-rule="nonzero"/><path fill="#ebf1fa" d="M 173.550781 218.816406 C 169.984375 214.941406 168.351562 209.414062 169.679688 203.910156 C 171.792969 195.144531 180.609375 189.75 189.375 191.859375 C 190.476562 192.125 191.527344 192.5 192.515625 192.964844 C 190.402344 190.671875 187.609375 188.953125 184.347656 188.167969 C 175.582031 186.050781 166.765625 191.445312 164.652344 200.214844 C 162.804688 207.878906 166.691406 215.582031 173.550781 218.816406 " fill-opacity="1" fill-rule="nonzero"/><path fill="#ffffff" d="M 220.851562 292.019531 C 214.574219 288.210938 214.191406 281.210938 220.210938 276.882812 C 227.265625 271.816406 232.578125 268.214844 234.277344 259.023438 C 235.371094 253.117188 236.691406 242.164062 245.25 244.347656 C 246.402344 244.644531 247.402344 245.328125 248.214844 246.203125 C 249.617188 246.835938 250.75 248.046875 251.507812 249.402344 C 254.820312 255.316406 255.335938 264.574219 254.085938 271.121094 C 252.230469 280.867188 246.417969 297.921875 233.820312 296.882812 C 230.164062 296.578125 226.109375 295.476562 222.949219 293.558594 C 222.207031 293.113281 221.554688 292.621094 220.980469 292.089844 C 220.9375 292.0625 220.894531 292.046875 220.851562 292.019531 Z M 201.632812 276.230469 C 191.484375 279.175781 185.726562 276.152344 180.292969 270.703125 C 180.292969 270.703125 180.023438 270.40625 179.613281 269.863281 C 179.429688 269.683594 179.242188 269.5 179.054688 269.3125 C 179.054688 269.3125 168.453125 257.40625 178.613281 248.175781 C 188.777344 238.953125 189.488281 251.816406 196.5625 249.757812 C 202.773438 247.949219 206.605469 246.078125 209.261719 250.082031 C 210.125 250.773438 210.875 251.867188 211.546875 253.511719 C 214.222656 260.074219 211.78125 273.28125 201.632812 276.230469 Z M 164.652344 200.214844 C 166.765625 191.449219 175.582031 186.050781 184.347656 188.164062 C 187.609375 188.953125 190.402344 190.671875 192.515625 192.964844 C 196.085938 196.839844 197.71875 202.363281 196.390625 207.871094 C 194.277344 216.636719 185.460938 222.03125 176.695312 219.917969 C 175.589844 219.652344 174.542969 219.277344 173.550781 218.8125 C 166.691406 215.582031 162.804688 207.878906 164.652344 200.214844 Z M 271.628906 273.539062 C 269.4375 265.8125 267.128906 261.414062 274.292969 258.777344 C 277.855469 257.46875 283.183594 257.589844 288.039062 259.398438 C 293.707031 260.960938 299.132812 264.699219 300.917969 271.007812 C 304.0625 282.085938 300.730469 288.191406 294.761719 293.851562 C 294.761719 293.851562 286 301.230469 277.347656 297.652344 C 274.800781 297.054688 272.207031 295.617188 269.785156 292.871094 C 259.808594 281.53125 273.820312 281.261719 271.628906 273.539062 Z M 343.953125 247.824219 C 343.742188 249.679688 342.523438 251.300781 341.03125 252.425781 C 335.617188 256.5 326.519531 258.253906 319.867188 257.902344 C 312.988281 257.53125 302.359375 255.742188 296.289062 250.449219 C 292.269531 247.9375 289.371094 244.394531 289.113281 239.425781 C 288.917969 235.757812 289.464844 231.59375 290.941406 228.203125 C 293.78125 221.660156 300.351562 220.222656 305.390625 225.070312 C 306.417969 225.617188 307.417969 226.382812 308.359375 227.375 C 310.683594 229.835938 312.753906 232.0625 314.964844 233.890625 C 317.808594 235.703125 321.066406 236.863281 325.429688 237.074219 C 329.867188 237.285156 337.0625 237.253906 340.089844 240.785156 C 342.664062 242.015625 344.382812 244.121094 343.953125 247.824219 Z M 278.011719 323.398438 C 301.796875 321.527344 322.699219 309.8125 337.238281 290.898438 C 350.433594 273.738281 357.671875 252.625 361.386719 231.292969 C 363.140625 221.191406 364.15625 210.808594 362.453125 200.691406 C 360.796875 190.839844 355.792969 182.761719 348.769531 176.804688 C 342.722656 171.675781 335.183594 168.113281 326.984375 166.359375 C 321.539062 165.191406 315.984375 164.566406 310.398438 164.425781 C 304.371094 164.273438 298.3125 164.691406 292.332031 165.632812 C 285.785156 166.664062 279.332031 168.3125 273.105469 170.511719 C 270.609375 171.398438 268.144531 172.367188 265.726562 173.425781 C 263.785156 174.273438 261.867188 175.179688 259.984375 176.136719 C 255.859375 178.234375 251.746094 180.273438 247.578125 181.988281 L 267.164062 231.546875 C 268.191406 234.652344 269.71875 240.742188 269.429688 243.640625 C 265.210938 239.78125 262.914062 234.410156 261.816406 231.820312 L 240.5 184.515625 C 234.179688 186.398438 227.636719 187.238281 220.628906 186.15625 C 203.742188 183.554688 180.058594 165.492188 163.089844 174.105469 C 155.070312 178.175781 151.230469 187.457031 149.261719 196.234375 C 139.675781 238.972656 160.925781 275.542969 193.628906 298.441406 C 204.191406 305.835938 215.945312 311.808594 228.242188 316.097656 C 244.621094 321.808594 261.707031 324.683594 278.011719 323.398438 " fill-opacity="1" fill-rule="nonzero"/><path fill="#f79110" d="M 209.261719 250.082031 C 209.632812 250.640625 209.980469 251.3125 210.308594 252.117188 C 212.988281 258.683594 210.542969 271.890625 200.398438 274.835938 C 190.597656 277.6875 184.890625 274.960938 179.613281 269.867188 C 180.023438 270.40625 180.292969 270.707031 180.292969 270.707031 C 185.726562 276.152344 191.484375 279.179688 201.632812 276.230469 C 211.78125 273.28125 214.222656 260.074219 211.546875 253.511719 C 210.875 251.867188 210.125 250.769531 209.261719 250.082031 " fill-opacity="1" fill-rule="nonzero"/><path fill="#fab938" d="M 200.398438 274.835938 C 210.542969 271.890625 212.988281 258.683594 210.308594 252.117188 C 209.980469 251.3125 209.632812 250.640625 209.261719 250.082031 C 206.605469 246.078125 202.769531 247.949219 196.5625 249.757812 C 189.488281 251.816406 188.777344 238.953125 178.613281 248.179688 C 168.449219 257.40625 179.054688 269.316406 179.054688 269.316406 C 179.242188 269.5 179.429688 269.683594 179.613281 269.867188 C 184.890625 274.960938 190.597656 277.6875 200.398438 274.835938 " fill-opacity="1" fill-rule="nonzero"/><path fill="#7c94d3" d="M 298.964844 270.375 C 302.105469 281.453125 298.773438 287.5625 292.804688 293.21875 C 292.804688 293.21875 285.316406 299.527344 277.347656 297.652344 C 286 301.230469 294.761719 293.851562 294.761719 293.851562 C 300.730469 288.191406 304.0625 282.085938 300.917969 271.007812 C 299.132812 264.699219 293.707031 260.960938 288.039062 259.398438 C 292.957031 261.230469 297.382812 264.796875 298.964844 270.375 " fill-opacity="1" fill-rule="nonzero"/><path fill="#5f80c9" d="M 277.347656 297.652344 C 285.316406 299.527344 292.804688 293.21875 292.804688 293.21875 C 298.773438 287.5625 302.105469 281.453125 298.964844 270.375 C 297.382812 264.796875 292.957031 261.230469 288.039062 259.398438 C 283.1875 257.589844 277.851562 257.46875 274.292969 258.78125 C 267.128906 261.414062 269.4375 265.8125 271.628906 273.539062 C 273.820312 281.261719 259.808594 281.53125 269.785156 292.871094 C 272.203125 295.617188 274.800781 297.054688 277.347656 297.652344 " fill-opacity="1" fill-rule="nonzero"/><path fill="#d8323f" d="M 233.820312 296.882812 C 246.417969 297.925781 252.230469 280.867188 254.085938 271.121094 C 255.332031 264.574219 254.820312 255.316406 251.507812 249.40625 C 250.75 248.046875 249.617188 246.839844 248.214844 246.207031 C 248.679688 246.707031 249.085938 247.269531 249.414062 247.867188 C 252.726562 253.777344 253.238281 263.035156 251.992188 269.582031 C 250.136719 279.328125 244.324219 296.386719 231.726562 295.34375 C 228.113281 295.046875 224.121094 293.964844 220.980469 292.089844 C 221.554688 292.621094 222.207031 293.113281 222.949219 293.558594 C 226.109375 295.480469 230.160156 296.578125 233.820312 296.882812 " fill-opacity="1" fill-rule="nonzero"/><path fill="#f14b62" d="M 251.992188 269.582031 C 253.238281 263.035156 252.726562 253.777344 249.414062 247.867188 C 249.085938 247.269531 248.679688 246.707031 248.214844 246.207031 C 247.402344 245.328125 246.402344 244.644531 245.25 244.347656 C 236.691406 242.164062 235.371094 253.117188 234.277344 259.023438 C 232.578125 268.21875 227.265625 271.820312 220.210938 276.882812 C 214.1875 281.210938 214.574219 288.210938 220.851562 292.023438 C 220.894531 292.046875 220.9375 292.066406 220.980469 292.089844 C 224.121094 293.964844 228.113281 295.046875 231.726562 295.34375 C 244.324219 296.386719 250.136719 279.328125 251.992188 269.582031 " fill-opacity="1" fill-rule="nonzero"/><path fill="#3389a1" d="M 314.964844 233.890625 C 312.753906 232.0625 310.683594 229.835938 308.359375 227.378906 C 307.417969 226.382812 306.417969 225.617188 305.390625 225.074219 C 305.546875 225.222656 305.699219 225.371094 305.847656 225.53125 C 309.023438 228.890625 311.726562 231.820312 314.964844 233.890625 " fill-opacity="1" fill-rule="nonzero"/><path fill="#3389a1" d="M 340.089844 240.785156 C 341.148438 242.027344 341.703125 243.695312 341.441406 245.972656 C 341.226562 247.832031 340.007812 249.453125 338.519531 250.578125 C 333.105469 254.652344 324.003906 256.40625 317.351562 256.050781 C 311.347656 255.730469 302.480469 254.324219 296.289062 250.449219 C 302.359375 255.742188 312.984375 257.53125 319.867188 257.902344 C 326.519531 258.257812 335.621094 256.5 341.03125 252.425781 C 342.523438 251.300781 343.738281 249.679688 343.953125 247.824219 C 344.382812 244.121094 342.664062 242.015625 340.089844 240.785156 " fill-opacity="1" fill-rule="nonzero"/><path fill="#42a6cd" d="M 338.519531 250.578125 C 340.007812 249.453125 341.226562 247.832031 341.441406 245.972656 C 341.703125 243.695312 341.148438 242.027344 340.089844 240.785156 C 337.0625 237.257812 329.867188 237.285156 325.425781 237.074219 C 321.066406 236.863281 317.808594 235.707031 314.964844 233.890625 C 311.726562 231.820312 309.023438 228.890625 305.847656 225.53125 C 305.699219 225.371094 305.546875 225.222656 305.390625 225.074219 C 300.347656 220.226562 293.78125 221.664062 290.941406 228.199219 C 289.464844 231.59375 288.917969 235.757812 289.113281 239.425781 C 289.371094 244.394531 292.269531 247.9375 296.289062 250.449219 C 302.480469 254.324219 311.347656 255.730469 317.351562 256.050781 C 324.003906 256.40625 333.105469 254.652344 338.519531 250.578125 " fill-opacity="1" fill-rule="nonzero"/><path fill="#44354d" d="M 210.78125 85.507812 C 206.304688 89.851562 200.835938 92.992188 194.300781 93.679688 C 197.742188 101.859375 202.867188 105.222656 206.222656 106.597656 L 214.847656 102.453125 C 215.421875 97.054688 213.921875 91.109375 210.78125 85.507812 " fill-opacity="1" fill-rule="nonzero"/><g clip-path="url(#id2)"><path fill="#42a6cd" d="M 190.792969 67.160156 C 190.191406 79.257812 191.800781 87.742188 194.300781 93.679688 C 200.832031 92.992188 206.304688 89.851562 210.777344 85.507812 C 206.621094 78.09375 199.609375 71.285156 190.792969 67.160156 " fill-opacity="1" fill-rule="nonzero"/></g><path fill="#fab938" d="M 261.816406 231.820312 C 262.914062 234.410156 265.210938 239.785156 269.429688 243.636719 C 269.71875 240.746094 268.191406 234.652344 267.164062 231.546875 L 247.578125 181.988281 L 223.53125 121.152344 L 213.851562 125.367188 L 240.5 184.515625 L 261.816406 231.820312 " fill-opacity="1" fill-rule="nonzero"/><path fill="#ebf1fa" d="M 223.808594 121.03125 L 216.585938 101.613281 L 214.847656 102.449219 L 206.222656 106.597656 L 203.59375 107.863281 L 213.007812 125.734375 L 213.851562 125.367188 L 223.53125 121.152344 L 223.808594 121.03125 " fill-opacity="1" fill-rule="nonzero"/><path fill="#44354d" d="M 341.433594 430.058594 C 341.015625 440.269531 334.363281 449.621094 324.082031 452.96875 L 115.734375 520.84375 C 102.523438 525.148438 88.328125 517.921875 84.027344 504.707031 L 37.300781 361.160156 C 33.703125 350.097656 38.179688 338.351562 47.476562 332.289062 C 36.015625 338.96875 26.875 356.96875 30.734375 368.824219 L 77.457031 512.375 C 81.757812 525.589844 95.953125 532.8125 109.164062 528.511719 L 317.511719 460.636719 C 329.894531 456.601562 343.339844 442.671875 341.433594 430.058594 " fill-opacity="1" fill-rule="nonzero"/><path fill="#5c3e6b" d="M 305.453125 433.960938 L 264.753906 307.726562 L 263.320312 294.871094 L 261.320312 276.957031 L 269.183594 292.757812 L 274.953125 304.351562 L 315.652344 430.585938 Z M 287.824219 439.703125 L 247.125 313.472656 L 245.6875 300.613281 L 243.691406 282.703125 L 251.554688 298.503906 L 257.324219 310.097656 L 298.023438 436.328125 Z M 270.191406 445.449219 L 229.492188 319.214844 L 228.058594 306.359375 L 226.058594 288.445312 L 233.925781 304.246094 L 239.695312 315.839844 L 280.390625 442.070312 Z M 252.5625 451.191406 L 211.863281 324.957031 L 210.429688 312.101562 L 208.429688 294.1875 L 216.292969 309.988281 L 222.0625 321.582031 L 262.761719 447.816406 Z M 234.929688 456.933594 L 194.234375 330.699219 L 192.796875 317.84375 L 190.800781 299.933594 L 198.664062 315.730469 L 204.433594 327.328125 L 245.132812 453.558594 Z M 217.300781 462.679688 L 176.601562 336.441406 L 175.167969 323.589844 L 173.171875 305.671875 L 181.035156 321.472656 L 186.804688 333.070312 L 227.5 459.300781 Z M 199.671875 468.417969 L 158.972656 342.1875 L 157.539062 329.332031 L 155.539062 311.417969 L 163.40625 327.21875 L 169.171875 338.8125 L 209.871094 465.042969 Z M 182.042969 474.164062 L 141.34375 347.929688 L 139.910156 335.074219 L 137.910156 317.160156 L 145.773438 332.960938 L 151.542969 344.554688 L 192.242188 470.785156 Z M 164.410156 479.90625 L 123.714844 353.675781 L 122.277344 340.816406 L 120.28125 322.90625 L 128.144531 338.707031 L 133.914062 350.300781 L 174.613281 476.53125 Z M 146.78125 485.652344 L 106.082031 359.417969 L 104.648438 346.5625 L 102.652344 328.648438 L 110.515625 344.449219 L 116.285156 356.042969 L 156.980469 482.273438 Z M 129.152344 491.394531 L 88.453125 365.160156 L 87.019531 352.304688 L 85.019531 334.390625 L 92.882812 350.191406 L 98.652344 361.785156 L 139.351562 488.019531 Z M 111.519531 497.136719 L 70.824219 370.90625 L 69.390625 358.046875 L 67.390625 340.136719 L 75.253906 355.9375 L 81.023438 367.53125 L 121.722656 493.761719 Z M 37.300781 361.160156 L 84.027344 504.707031 C 88.328125 517.921875 102.523438 525.148438 115.734375 520.84375 L 324.082031 452.96875 C 334.363281 449.621094 341.015625 440.269531 341.433594 430.058594 C 341.550781 427.152344 341.164062 424.175781 340.214844 421.246094 L 293.488281 277.699219 C 289.1875 264.484375 274.992188 257.261719 261.78125 261.5625 L 53.433594 329.4375 C 51.277344 330.140625 49.289062 331.109375 47.476562 332.289062 C 38.179688 338.351562 33.703125 350.097656 37.300781 361.160156 " fill-opacity="1" fill-rule="nonzero"/><path fill="#346daf" d="M 70.824219 370.90625 L 111.519531 497.136719 L 121.722656 493.761719 L 81.023438 367.53125 L 70.824219 370.90625 " fill-opacity="1" fill-rule="nonzero"/><path fill="#fbcfc7" d="M 81.023438 367.53125 L 75.253906 355.9375 C 73.46875 357.015625 71.449219 357.777344 69.390625 358.046875 L 70.824219 370.90625 L 81.023438 367.53125 " fill-opacity="1" fill-rule="nonzero"/><path fill="#346daf" d="M 67.390625 340.136719 L 69.390625 358.046875 C 71.449219 357.777344 73.46875 357.015625 75.253906 355.9375 L 67.390625 340.136719 " fill-opacity="1" fill-rule="nonzero"/><path fill="#ffffff" d="M 88.453125 365.160156 L 129.152344 491.394531 L 139.351562 488.019531 L 98.652344 361.785156 L 88.453125 365.160156 " fill-opacity="1" fill-rule="nonzero"/><path fill="#fbcfc7" d="M 98.652344 361.785156 L 92.882812 350.191406 C 91.097656 351.269531 89.078125 352.035156 87.019531 352.304688 L 88.453125 365.160156 L 98.652344 361.785156 " fill-opacity="1" fill-rule="nonzero"/><path fill="#ffffff" d="M 85.019531 334.390625 L 87.019531 352.304688 C 89.078125 352.035156 91.097656 351.269531 92.882812 350.191406 L 85.019531 334.390625 " fill-opacity="1" fill-rule="nonzero"/><path fill="#f79110" d="M 106.082031 359.417969 L 146.78125 485.652344 L 156.980469 482.273438 L 116.285156 356.042969 L 106.082031 359.417969 " fill-opacity="1" fill-rule="nonzero"/><path fill="#fbcfc7" d="M 116.285156 356.042969 L 110.515625 344.449219 C 108.730469 345.527344 106.707031 346.289062 104.648438 346.5625 L 106.082031 359.417969 L 116.285156 356.042969 " fill-opacity="1" fill-rule="nonzero"/><path fill="#f79110" d="M 102.652344 328.648438 L 104.648438 346.5625 C 106.707031 346.289062 108.730469 345.527344 110.515625 344.449219 L 102.652344 328.648438 " fill-opacity="1" fill-rule="nonzero"/><path fill="#f14b62" d="M 123.714844 353.675781 L 164.410156 479.90625 L 174.613281 476.53125 L 133.914062 350.300781 L 123.714844 353.675781 " fill-opacity="1" fill-rule="nonzero"/><path fill="#fbcfc7" d="M 133.914062 350.300781 L 128.144531 338.707031 C 126.359375 339.785156 124.339844 340.550781 122.277344 340.816406 L 123.714844 353.675781 L 133.914062 350.300781 " fill-opacity="1" fill-rule="nonzero"/><path fill="#f14b62" d="M 120.28125 322.90625 L 122.277344 340.816406 C 124.339844 340.550781 126.359375 339.785156 128.144531 338.707031 L 120.28125 322.90625 " fill-opacity="1" fill-rule="nonzero"/><path fill="#b3c43f" d="M 141.34375 347.929688 L 182.042969 474.164062 L 192.242188 470.785156 L 151.542969 344.554688 L 141.34375 347.929688 " fill-opacity="1" fill-rule="nonzero"/><path fill="#fbcfc7" d="M 151.542969 344.554688 L 145.773438 332.960938 C 143.988281 334.039062 141.96875 334.804688 139.910156 335.074219 L 141.34375 347.929688 L 151.542969 344.554688 " fill-opacity="1" fill-rule="nonzero"/><path fill="#b3c43f" d="M 137.910156 317.160156 L 139.910156 335.074219 C 141.96875 334.804688 143.988281 334.039062 145.773438 332.960938 L 137.910156 317.160156 " fill-opacity="1" fill-rule="nonzero"/><path fill="#fab938" d="M 158.972656 342.1875 L 199.671875 468.417969 L 209.871094 465.042969 L 169.171875 338.8125 L 158.972656 342.1875 " fill-opacity="1" fill-rule="nonzero"/><path fill="#fbcfc7" d="M 169.171875 338.8125 L 163.40625 327.21875 C 161.617188 328.296875 159.597656 329.0625 157.539062 329.332031 L 158.972656 342.1875 L 169.171875 338.8125 " fill-opacity="1" fill-rule="nonzero"/><path fill="#fab938" d="M 155.539062 311.417969 L 157.539062 329.332031 C 159.597656 329.0625 161.617188 328.296875 163.40625 327.21875 L 155.539062 311.417969 " fill-opacity="1" fill-rule="nonzero"/><path fill="#992471" d="M 176.605469 336.441406 L 217.300781 462.679688 L 227.5 459.300781 L 186.804688 333.070312 L 176.605469 336.441406 " fill-opacity="1" fill-rule="nonzero"/><path fill="#fbcfc7" d="M 186.804688 333.070312 L 181.035156 321.472656 C 179.25 322.550781 177.226562 323.320312 175.167969 323.589844 L 176.605469 336.441406 L 186.804688 333.070312 " fill-opacity="1" fill-rule="nonzero"/><path fill="#992471" d="M 173.171875 305.671875 L 175.167969 323.589844 C 177.226562 323.320312 179.25 322.550781 181.035156 321.472656 L 173.171875 305.671875 " fill-opacity="1" fill-rule="nonzero"/><path fill="#cfd8ed" d="M 194.234375 330.699219 L 234.929688 456.933594 L 245.132812 453.558594 L 204.433594 327.328125 L 194.234375 330.699219 " fill-opacity="1" fill-rule="nonzero"/><path fill="#fbcfc7" d="M 204.433594 327.328125 L 198.664062 315.730469 C 196.878906 316.8125 194.859375 317.574219 192.796875 317.84375 L 194.234375 330.699219 L 204.433594 327.328125 " fill-opacity="1" fill-rule="nonzero"/><path fill="#cfd8ed" d="M 190.800781 299.933594 L 192.796875 317.84375 C 194.859375 317.574219 196.878906 316.8125 198.664062 315.730469 L 190.800781 299.933594 " fill-opacity="1" fill-rule="nonzero"/><path fill="#7c94d3" d="M 211.863281 324.957031 L 252.5625 451.191406 L 262.761719 447.816406 L 222.0625 321.582031 L 211.863281 324.957031 " fill-opacity="1" fill-rule="nonzero"/><path fill="#fbcfc7" d="M 222.0625 321.582031 L 216.292969 309.988281 C 214.507812 311.066406 212.488281 311.832031 210.429688 312.101562 L 211.863281 324.957031 L 222.0625 321.582031 " fill-opacity="1" fill-rule="nonzero"/><path fill="#7c94d3" d="M 208.429688 294.1875 L 210.429688 312.101562 C 212.488281 311.832031 214.507812 311.066406 216.292969 309.988281 L 208.429688 294.1875 " fill-opacity="1" fill-rule="nonzero"/><path fill="#bb8e4f" d="M 229.492188 319.214844 L 270.191406 445.449219 L 280.390625 442.070312 L 239.695312 315.839844 L 229.492188 319.214844 " fill-opacity="1" fill-rule="nonzero"/><path fill="#fbcfc7" d="M 239.695312 315.839844 L 233.925781 304.246094 C 232.136719 305.324219 230.117188 306.085938 228.058594 306.359375 L 229.492188 319.214844 L 239.695312 315.839844 " fill-opacity="1" fill-rule="nonzero"/><path fill="#bb8e4f" d="M 226.058594 288.445312 L 228.058594 306.359375 C 230.117188 306.085938 232.136719 305.324219 233.925781 304.246094 L 226.058594 288.445312 " fill-opacity="1" fill-rule="nonzero"/><path fill="#346daf" d="M 247.125 313.472656 L 287.824219 439.703125 L 298.023438 436.328125 L 257.324219 310.097656 L 247.125 313.472656 " fill-opacity="1" fill-rule="nonzero"/><path fill="#fbcfc7" d="M 257.324219 310.097656 L 251.554688 298.503906 C 249.769531 299.582031 247.75 300.34375 245.6875 300.613281 L 247.125 313.472656 L 257.324219 310.097656 " fill-opacity="1" fill-rule="nonzero"/><path fill="#346daf" d="M 243.691406 282.703125 L 245.6875 300.613281 C 247.75 300.34375 249.769531 299.582031 251.554688 298.503906 L 243.691406 282.703125 " fill-opacity="1" fill-rule="nonzero"/><path fill="#b3c43f" d="M 264.753906 307.726562 L 305.453125 433.960938 L 315.652344 430.585938 L 274.953125 304.351562 L 264.753906 307.726562 " fill-opacity="1" fill-rule="nonzero"/><path fill="#fbcfc7" d="M 274.953125 304.351562 L 269.183594 292.757812 C 267.398438 293.835938 265.378906 294.601562 263.320312 294.871094 L 264.753906 307.726562 L 274.953125 304.351562 " fill-opacity="1" fill-rule="nonzero"/><path fill="#b3c43f" d="M 261.320312 276.957031 L 263.320312 294.871094 C 265.378906 294.601562 267.398438 293.835938 269.183594 292.757812 L 261.320312 276.957031 " fill-opacity="1" fill-rule="nonzero"/><path fill="#f14b62" d="M 395.078125 133.5625 L 395.03125 133.554688 L 370.265625 263.855469 L 380.832031 265.785156 L 405.597656 135.484375 L 395.078125 133.5625 " fill-opacity="1" fill-rule="nonzero"/><path fill="#fbcfc7" d="M 405.597656 135.484375 L 406.085938 122.542969 C 404.003906 122.632812 401.863281 122.335938 399.929688 121.585938 L 395.027344 133.554688 L 395.074219 133.566406 L 405.597656 135.484375 " fill-opacity="1" fill-rule="nonzero"/><path fill="#f14b62" d="M 406.085938 122.546875 L 406.757812 104.90625 L 399.929688 121.585938 C 401.863281 122.339844 404.003906 122.632812 406.085938 122.546875 " fill-opacity="1" fill-rule="nonzero"/><path fill="#346daf" d="M 449.527344 122.984375 L 396.175781 244.410156 L 406.042969 248.660156 L 459.390625 127.238281 L 449.527344 122.984375 " fill-opacity="1" fill-rule="nonzero"/><path fill="#fbcfc7" d="M 449.527344 122.984375 L 459.394531 127.234375 L 462.777344 114.734375 C 460.726562 114.355469 458.707031 113.585938 456.988281 112.417969 L 449.527344 122.984375 " fill-opacity="1" fill-rule="nonzero"/><path fill="#346daf" d="M 456.988281 112.421875 C 458.707031 113.585938 460.726562 114.355469 462.777344 114.734375 L 467.382812 97.695312 L 456.988281 112.421875 " fill-opacity="1" fill-rule="nonzero"/></svg>