<svg xmlns="http://www.w3.org/2000/svg" xmlns:xlink="http://www.w3.org/1999/xlink" width="2000" zoomAndPan="magnify" viewBox="0 0 1500 899.99999" height="1200" preserveAspectRatio="xMidYMid meet" version="1.0"><defs><clipPath id="id1"><path d="M 0 0 L 761 0 L 761 108 L 0 108 Z M 0 0 " clip-rule="nonzero"/></clipPath><clipPath id="id2"><path d="M 3.828125 -1019.609375 L 1666.777344 -770.523438 L 1496.128906 368.765625 L -166.820312 119.679688 Z M 3.828125 -1019.609375 " clip-rule="nonzero"/></clipPath><clipPath id="id3"><path d="M 3.828125 -1019.609375 L 1666.777344 -770.523438 L 1496.128906 368.765625 L -166.820312 119.679688 Z M 3.828125 -1019.609375 " clip-rule="nonzero"/></clipPath><clipPath id="id4"><path d="M 3.828125 -1019.609375 L 1666.777344 -770.523438 L 1496.128906 368.765625 L -166.820312 119.679688 Z M 3.828125 -1019.609375 " clip-rule="nonzero"/></clipPath><clipPath id="id5"><path d="M 263 0 L 812 0 L 812 116 L 263 116 Z M 263 0 " clip-rule="nonzero"/></clipPath><clipPath id="id6"><path d="M 3.828125 -1019.609375 L 1666.777344 -770.523438 L 1496.128906 368.765625 L -166.820312 119.679688 Z M 3.828125 -1019.609375 " clip-rule="nonzero"/></clipPath><clipPath id="id7"><path d="M 3.828125 -1019.609375 L 1666.777344 -770.523438 L 1496.128906 368.765625 L -166.820312 119.679688 Z M 3.828125 -1019.609375 " clip-rule="nonzero"/></clipPath><clipPath id="id8"><path d="M 3.828125 -1019.609375 L 1666.777344 -770.523438 L 1496.128906 368.765625 L -166.820312 119.679688 Z M 3.828125 -1019.609375 " clip-rule="nonzero"/></clipPath><clipPath id="id9"><path d="M 484 0 L 668 0 L 668 9 L 484 9 Z M 484 0 " clip-rule="nonzero"/></clipPath><clipPath id="id10"><path d="M 3.828125 -1019.609375 L 1666.777344 -770.523438 L 1496.128906 368.765625 L -166.820312 119.679688 Z M 3.828125 -1019.609375 " clip-rule="nonzero"/></clipPath><clipPath id="id11"><path d="M 3.828125 -1019.609375 L 1666.777344 -770.523438 L 1496.128906 368.765625 L -166.820312 119.679688 Z M 3.828125 -1019.609375 " clip-rule="nonzero"/></clipPath><clipPath id="id12"><path d="M 3.828125 -1019.609375 L 1666.777344 -770.523438 L 1496.128906 368.765625 L -166.820312 119.679688 Z M 3.828125 -1019.609375 " clip-rule="nonzero"/></clipPath><clipPath id="id13"><path d="M 1169 0 L 1500 0 L 1500 73 L 1169 73 Z M 1169 0 " clip-rule="nonzero"/></clipPath><clipPath id="id14"><path d="M 3.828125 -1019.609375 L 1666.777344 -770.523438 L 1496.128906 368.765625 L -166.820312 119.679688 Z M 3.828125 -1019.609375 " clip-rule="nonzero"/></clipPath><clipPath id="id15"><path d="M 3.828125 -1019.609375 L 1666.777344 -770.523438 L 1496.128906 368.765625 L -166.820312 119.679688 Z M 3.828125 -1019.609375 " clip-rule="nonzero"/></clipPath><clipPath id="id16"><path d="M 3.828125 -1019.609375 L 1666.777344 -770.523438 L 1496.128906 368.765625 L -166.820312 119.679688 Z M 3.828125 -1019.609375 " clip-rule="nonzero"/></clipPath><clipPath id="id17"><path d="M 1225.277344 -439.007812 L 1611.644531 -381.132812 L 1540.902344 91.164062 L 1154.53125 33.292969 Z M 1225.277344 -439.007812 " clip-rule="nonzero"/></clipPath><clipPath id="id18"><path d="M 1225.277344 -439.007812 L 1608.519531 -381.601562 L 1537.777344 90.699219 L 1154.53125 33.292969 Z M 1225.277344 -439.007812 " clip-rule="nonzero"/></clipPath><clipPath id="id19"><path d="M 92 22 L 116 22 L 116 29 L 92 29 Z M 92 22 " clip-rule="nonzero"/></clipPath><clipPath id="id20"><path d="M 3.828125 -1019.609375 L 1666.777344 -770.523438 L 1496.128906 368.765625 L -166.820312 119.679688 Z M 3.828125 -1019.609375 " clip-rule="nonzero"/></clipPath><clipPath id="id21"><path d="M 3.828125 -1019.609375 L 1666.777344 -770.523438 L 1496.128906 368.765625 L -166.820312 119.679688 Z M 3.828125 -1019.609375 " clip-rule="nonzero"/></clipPath><clipPath id="id22"><path d="M 3.828125 -1019.609375 L 1666.777344 -770.523438 L 1496.128906 368.765625 L -166.820312 119.679688 Z M 3.828125 -1019.609375 " clip-rule="nonzero"/></clipPath><clipPath id="id23"><path d="M 165 7 L 176 7 L 176 22 L 165 22 Z M 165 7 " clip-rule="nonzero"/></clipPath><clipPath id="id24"><path d="M 3.828125 -1019.609375 L 1666.777344 -770.523438 L 1496.128906 368.765625 L -166.820312 119.679688 Z M 3.828125 -1019.609375 " clip-rule="nonzero"/></clipPath><clipPath id="id25"><path d="M 3.828125 -1019.609375 L 1666.777344 -770.523438 L 1496.128906 368.765625 L -166.820312 119.679688 Z M 3.828125 -1019.609375 " clip-rule="nonzero"/></clipPath><clipPath id="id26"><path d="M 3.828125 -1019.609375 L 1666.777344 -770.523438 L 1496.128906 368.765625 L -166.820312 119.679688 Z M 3.828125 -1019.609375 " clip-rule="nonzero"/></clipPath><clipPath id="id27"><path d="M 1168 125 L 1184 125 L 1184 137 L 1168 137 Z M 1168 125 " clip-rule="nonzero"/></clipPath><clipPath id="id28"><path d="M 3.828125 -1019.609375 L 1666.777344 -770.523438 L 1496.128906 368.765625 L -166.820312 119.679688 Z M 3.828125 -1019.609375 " clip-rule="nonzero"/></clipPath><clipPath id="id29"><path d="M 3.828125 -1019.609375 L 1666.777344 -770.523438 L 1496.128906 368.765625 L -166.820312 119.679688 Z M 3.828125 -1019.609375 " clip-rule="nonzero"/></clipPath><clipPath id="id30"><path d="M 3.828125 -1019.609375 L 1666.777344 -770.523438 L 1496.128906 368.765625 L -166.820312 119.679688 Z M 3.828125 -1019.609375 " clip-rule="nonzero"/></clipPath><clipPath id="id31"><path d="M 1077 69 L 1090 69 L 1090 83 L 1077 83 Z M 1077 69 " clip-rule="nonzero"/></clipPath><clipPath id="id32"><path d="M 3.828125 -1019.609375 L 1666.777344 -770.523438 L 1496.128906 368.765625 L -166.820312 119.679688 Z M 3.828125 -1019.609375 " clip-rule="nonzero"/></clipPath><clipPath id="id33"><path d="M 3.828125 -1019.609375 L 1666.777344 -770.523438 L 1496.128906 368.765625 L -166.820312 119.679688 Z M 3.828125 -1019.609375 " clip-rule="nonzero"/></clipPath><clipPath id="id34"><path d="M 3.828125 -1019.609375 L 1666.777344 -770.523438 L 1496.128906 368.765625 L -166.820312 119.679688 Z M 3.828125 -1019.609375 " clip-rule="nonzero"/></clipPath><clipPath id="id35"><path d="M 1144 165 L 1163 165 L 1163 183 L 1144 183 Z M 1144 165 " clip-rule="nonzero"/></clipPath><clipPath id="id36"><path d="M 3.828125 -1019.609375 L 1666.777344 -770.523438 L 1496.128906 368.765625 L -166.820312 119.679688 Z M 3.828125 -1019.609375 " clip-rule="nonzero"/></clipPath><clipPath id="id37"><path d="M 3.828125 -1019.609375 L 1666.777344 -770.523438 L 1496.128906 368.765625 L -166.820312 119.679688 Z M 3.828125 -1019.609375 " clip-rule="nonzero"/></clipPath><clipPath id="id38"><path d="M 3.828125 -1019.609375 L 1666.777344 -770.523438 L 1496.128906 368.765625 L -166.820312 119.679688 Z M 3.828125 -1019.609375 " clip-rule="nonzero"/></clipPath><clipPath id="id39"><path d="M 366 101 L 377 101 L 377 115 L 366 115 Z M 366 101 " clip-rule="nonzero"/></clipPath><clipPath id="id40"><path d="M 3.828125 -1019.609375 L 1666.777344 -770.523438 L 1496.128906 368.765625 L -166.820312 119.679688 Z M 3.828125 -1019.609375 " clip-rule="nonzero"/></clipPath><clipPath id="id41"><path d="M 3.828125 -1019.609375 L 1666.777344 -770.523438 L 1496.128906 368.765625 L -166.820312 119.679688 Z M 3.828125 -1019.609375 " clip-rule="nonzero"/></clipPath><clipPath id="id42"><path d="M 3.828125 -1019.609375 L 1666.777344 -770.523438 L 1496.128906 368.765625 L -166.820312 119.679688 Z M 3.828125 -1019.609375 " clip-rule="nonzero"/></clipPath><clipPath id="id43"><path d="M 1227 0 L 1244 0 L 1244 17 L 1227 17 Z M 1227 0 " clip-rule="nonzero"/></clipPath><clipPath id="id44"><path d="M 3.828125 -1019.609375 L 1666.777344 -770.523438 L 1496.128906 368.765625 L -166.820312 119.679688 Z M 3.828125 -1019.609375 " clip-rule="nonzero"/></clipPath><clipPath id="id45"><path d="M 3.828125 -1019.609375 L 1666.777344 -770.523438 L 1496.128906 368.765625 L -166.820312 119.679688 Z M 3.828125 -1019.609375 " clip-rule="nonzero"/></clipPath><clipPath id="id46"><path d="M 3.828125 -1019.609375 L 1666.777344 -770.523438 L 1496.128906 368.765625 L -166.820312 119.679688 Z M 3.828125 -1019.609375 " clip-rule="nonzero"/></clipPath><clipPath id="id47"><path d="M 1193 0 L 1217 0 L 1217 1 L 1193 1 Z M 1193 0 " clip-rule="nonzero"/></clipPath><clipPath id="id48"><path d="M 3.828125 -1019.609375 L 1666.777344 -770.523438 L 1496.128906 368.765625 L -166.820312 119.679688 Z M 3.828125 -1019.609375 " clip-rule="nonzero"/></clipPath><clipPath id="id49"><path d="M 3.828125 -1019.609375 L 1666.777344 -770.523438 L 1496.128906 368.765625 L -166.820312 119.679688 Z M 3.828125 -1019.609375 " clip-rule="nonzero"/></clipPath><clipPath id="id50"><path d="M 3.828125 -1019.609375 L 1666.777344 -770.523438 L 1496.128906 368.765625 L -166.820312 119.679688 Z M 3.828125 -1019.609375 " clip-rule="nonzero"/></clipPath><clipPath id="id51"><path d="M 845 72 L 856 72 L 856 87 L 845 87 Z M 845 72 " clip-rule="nonzero"/></clipPath><clipPath id="id52"><path d="M 3.828125 -1019.609375 L 1666.777344 -770.523438 L 1496.128906 368.765625 L -166.820312 119.679688 Z M 3.828125 -1019.609375 " clip-rule="nonzero"/></clipPath><clipPath id="id53"><path d="M 3.828125 -1019.609375 L 1666.777344 -770.523438 L 1496.128906 368.765625 L -166.820312 119.679688 Z M 3.828125 -1019.609375 " clip-rule="nonzero"/></clipPath><clipPath id="id54"><path d="M 3.828125 -1019.609375 L 1666.777344 -770.523438 L 1496.128906 368.765625 L -166.820312 119.679688 Z M 3.828125 -1019.609375 " clip-rule="nonzero"/></clipPath><clipPath id="id55"><path d="M 956 134 L 968 134 L 968 149 L 956 149 Z M 956 134 " clip-rule="nonzero"/></clipPath><clipPath id="id56"><path d="M 3.828125 -1019.609375 L 1666.777344 -770.523438 L 1496.128906 368.765625 L -166.820312 119.679688 Z M 3.828125 -1019.609375 " clip-rule="nonzero"/></clipPath><clipPath id="id57"><path d="M 3.828125 -1019.609375 L 1666.777344 -770.523438 L 1496.128906 368.765625 L -166.820312 119.679688 Z M 3.828125 -1019.609375 " clip-rule="nonzero"/></clipPath><clipPath id="id58"><path d="M 3.828125 -1019.609375 L 1666.777344 -770.523438 L 1496.128906 368.765625 L -166.820312 119.679688 Z M 3.828125 -1019.609375 " clip-rule="nonzero"/></clipPath><clipPath id="id59"><path d="M 674 8 L 702 8 L 702 67 L 674 67 Z M 674 8 " clip-rule="nonzero"/></clipPath><clipPath id="id60"><path d="M 3.828125 -1019.609375 L 1666.777344 -770.523438 L 1496.128906 368.765625 L -166.820312 119.679688 Z M 3.828125 -1019.609375 " clip-rule="nonzero"/></clipPath><clipPath id="id61"><path d="M 3.828125 -1019.609375 L 1666.777344 -770.523438 L 1496.128906 368.765625 L -166.820312 119.679688 Z M 3.828125 -1019.609375 " clip-rule="nonzero"/></clipPath><clipPath id="id62"><path d="M 3.828125 -1019.609375 L 1666.777344 -770.523438 L 1496.128906 368.765625 L -166.820312 119.679688 Z M 3.828125 -1019.609375 " clip-rule="nonzero"/></clipPath><clipPath id="id63"><path d="M 634 30 L 650 30 L 650 44 L 634 44 Z M 634 30 " clip-rule="nonzero"/></clipPath><clipPath id="id64"><path d="M 3.828125 -1019.609375 L 1666.777344 -770.523438 L 1496.128906 368.765625 L -166.820312 119.679688 Z M 3.828125 -1019.609375 " clip-rule="nonzero"/></clipPath><clipPath id="id65"><path d="M 3.828125 -1019.609375 L 1666.777344 -770.523438 L 1496.128906 368.765625 L -166.820312 119.679688 Z M 3.828125 -1019.609375 " clip-rule="nonzero"/></clipPath><clipPath id="id66"><path d="M 3.828125 -1019.609375 L 1666.777344 -770.523438 L 1496.128906 368.765625 L -166.820312 119.679688 Z M 3.828125 -1019.609375 " clip-rule="nonzero"/></clipPath><clipPath id="id67"><path d="M 821 124 L 830 124 L 830 141 L 821 141 Z M 821 124 " clip-rule="nonzero"/></clipPath><clipPath id="id68"><path d="M 3.828125 -1019.609375 L 1666.777344 -770.523438 L 1496.128906 368.765625 L -166.820312 119.679688 Z M 3.828125 -1019.609375 " clip-rule="nonzero"/></clipPath><clipPath id="id69"><path d="M 3.828125 -1019.609375 L 1666.777344 -770.523438 L 1496.128906 368.765625 L -166.820312 119.679688 Z M 3.828125 -1019.609375 " clip-rule="nonzero"/></clipPath><clipPath id="id70"><path d="M 3.828125 -1019.609375 L 1666.777344 -770.523438 L 1496.128906 368.765625 L -166.820312 119.679688 Z M 3.828125 -1019.609375 " clip-rule="nonzero"/></clipPath><clipPath id="id71"><path d="M 429 149 L 456 149 L 456 207 L 429 207 Z M 429 149 " clip-rule="nonzero"/></clipPath><clipPath id="id72"><path d="M 3.828125 -1019.609375 L 1666.777344 -770.523438 L 1496.128906 368.765625 L -166.820312 119.679688 Z M 3.828125 -1019.609375 " clip-rule="nonzero"/></clipPath><clipPath id="id73"><path d="M 3.828125 -1019.609375 L 1666.777344 -770.523438 L 1496.128906 368.765625 L -166.820312 119.679688 Z M 3.828125 -1019.609375 " clip-rule="nonzero"/></clipPath><clipPath id="id74"><path d="M 3.828125 -1019.609375 L 1666.777344 -770.523438 L 1496.128906 368.765625 L -166.820312 119.679688 Z M 3.828125 -1019.609375 " clip-rule="nonzero"/></clipPath><clipPath id="id75"><path d="M 869 19 L 886 19 L 886 36 L 869 36 Z M 869 19 " clip-rule="nonzero"/></clipPath><clipPath id="id76"><path d="M 3.828125 -1019.609375 L 1666.777344 -770.523438 L 1496.128906 368.765625 L -166.820312 119.679688 Z M 3.828125 -1019.609375 " clip-rule="nonzero"/></clipPath><clipPath id="id77"><path d="M 3.828125 -1019.609375 L 1666.777344 -770.523438 L 1496.128906 368.765625 L -166.820312 119.679688 Z M 3.828125 -1019.609375 " clip-rule="nonzero"/></clipPath><clipPath id="id78"><path d="M 3.828125 -1019.609375 L 1666.777344 -770.523438 L 1496.128906 368.765625 L -166.820312 119.679688 Z M 3.828125 -1019.609375 " clip-rule="nonzero"/></clipPath><clipPath id="id79"><path d="M 605 136 L 620 136 L 620 160 L 605 160 Z M 605 136 " clip-rule="nonzero"/></clipPath><clipPath id="id80"><path d="M 3.828125 -1019.609375 L 1666.777344 -770.523438 L 1496.128906 368.765625 L -166.820312 119.679688 Z M 3.828125 -1019.609375 " clip-rule="nonzero"/></clipPath><clipPath id="id81"><path d="M 3.828125 -1019.609375 L 1666.777344 -770.523438 L 1496.128906 368.765625 L -166.820312 119.679688 Z M 3.828125 -1019.609375 " clip-rule="nonzero"/></clipPath><clipPath id="id82"><path d="M 3.828125 -1019.609375 L 1666.777344 -770.523438 L 1496.128906 368.765625 L -166.820312 119.679688 Z M 3.828125 -1019.609375 " clip-rule="nonzero"/></clipPath><clipPath id="id83"><path d="M 565 159 L 578 159 L 578 187 L 565 187 Z M 565 159 " clip-rule="nonzero"/></clipPath><clipPath id="id84"><path d="M 3.828125 -1019.609375 L 1666.777344 -770.523438 L 1496.128906 368.765625 L -166.820312 119.679688 Z M 3.828125 -1019.609375 " clip-rule="nonzero"/></clipPath><clipPath id="id85"><path d="M 3.828125 -1019.609375 L 1666.777344 -770.523438 L 1496.128906 368.765625 L -166.820312 119.679688 Z M 3.828125 -1019.609375 " clip-rule="nonzero"/></clipPath><clipPath id="id86"><path d="M 3.828125 -1019.609375 L 1666.777344 -770.523438 L 1496.128906 368.765625 L -166.820312 119.679688 Z M 3.828125 -1019.609375 " clip-rule="nonzero"/></clipPath><clipPath id="id87"><path d="M 657 108 L 678 108 L 678 144 L 657 144 Z M 657 108 " clip-rule="nonzero"/></clipPath><clipPath id="id88"><path d="M 3.828125 -1019.609375 L 1666.777344 -770.523438 L 1496.128906 368.765625 L -166.820312 119.679688 Z M 3.828125 -1019.609375 " clip-rule="nonzero"/></clipPath><clipPath id="id89"><path d="M 3.828125 -1019.609375 L 1666.777344 -770.523438 L 1496.128906 368.765625 L -166.820312 119.679688 Z M 3.828125 -1019.609375 " clip-rule="nonzero"/></clipPath><clipPath id="id90"><path d="M 3.828125 -1019.609375 L 1666.777344 -770.523438 L 1496.128906 368.765625 L -166.820312 119.679688 Z M 3.828125 -1019.609375 " clip-rule="nonzero"/></clipPath><clipPath id="id91"><path d="M 756 70 L 775 70 L 775 93 L 756 93 Z M 756 70 " clip-rule="nonzero"/></clipPath><clipPath id="id92"><path d="M 3.828125 -1019.609375 L 1666.777344 -770.523438 L 1496.128906 368.765625 L -166.820312 119.679688 Z M 3.828125 -1019.609375 " clip-rule="nonzero"/></clipPath><clipPath id="id93"><path d="M 3.828125 -1019.609375 L 1666.777344 -770.523438 L 1496.128906 368.765625 L -166.820312 119.679688 Z M 3.828125 -1019.609375 " clip-rule="nonzero"/></clipPath><clipPath id="id94"><path d="M 3.828125 -1019.609375 L 1666.777344 -770.523438 L 1496.128906 368.765625 L -166.820312 119.679688 Z M 3.828125 -1019.609375 " clip-rule="nonzero"/></clipPath><clipPath id="id95"><path d="M 532 93 L 553 93 L 553 117 L 532 117 Z M 532 93 " clip-rule="nonzero"/></clipPath><clipPath id="id96"><path d="M 3.828125 -1019.609375 L 1666.777344 -770.523438 L 1496.128906 368.765625 L -166.820312 119.679688 Z M 3.828125 -1019.609375 " clip-rule="nonzero"/></clipPath><clipPath id="id97"><path d="M 3.828125 -1019.609375 L 1666.777344 -770.523438 L 1496.128906 368.765625 L -166.820312 119.679688 Z M 3.828125 -1019.609375 " clip-rule="nonzero"/></clipPath><clipPath id="id98"><path d="M 3.828125 -1019.609375 L 1666.777344 -770.523438 L 1496.128906 368.765625 L -166.820312 119.679688 Z M 3.828125 -1019.609375 " clip-rule="nonzero"/></clipPath><clipPath id="id99"><path d="M 998 25 L 1029 25 L 1029 45 L 998 45 Z M 998 25 " clip-rule="nonzero"/></clipPath><clipPath id="id100"><path d="M 3.828125 -1019.609375 L 1666.777344 -770.523438 L 1496.128906 368.765625 L -166.820312 119.679688 Z M 3.828125 -1019.609375 " clip-rule="nonzero"/></clipPath><clipPath id="id101"><path d="M 3.828125 -1019.609375 L 1666.777344 -770.523438 L 1496.128906 368.765625 L -166.820312 119.679688 Z M 3.828125 -1019.609375 " clip-rule="nonzero"/></clipPath><clipPath id="id102"><path d="M 3.828125 -1019.609375 L 1666.777344 -770.523438 L 1496.128906 368.765625 L -166.820312 119.679688 Z M 3.828125 -1019.609375 " clip-rule="nonzero"/></clipPath><clipPath id="id103"><path d="M 196 62 L 209 62 L 209 75 L 196 75 Z M 196 62 " clip-rule="nonzero"/></clipPath><clipPath id="id104"><path d="M 3.828125 -1019.609375 L 1666.777344 -770.523438 L 1496.128906 368.765625 L -166.820312 119.679688 Z M 3.828125 -1019.609375 " clip-rule="nonzero"/></clipPath><clipPath id="id105"><path d="M 3.828125 -1019.609375 L 1666.777344 -770.523438 L 1496.128906 368.765625 L -166.820312 119.679688 Z M 3.828125 -1019.609375 " clip-rule="nonzero"/></clipPath><clipPath id="id106"><path d="M 3.828125 -1019.609375 L 1666.777344 -770.523438 L 1496.128906 368.765625 L -166.820312 119.679688 Z M 3.828125 -1019.609375 " clip-rule="nonzero"/></clipPath><clipPath id="id107"><path d="M 187 93 L 202 93 L 202 105 L 187 105 Z M 187 93 " clip-rule="nonzero"/></clipPath><clipPath id="id108"><path d="M 3.828125 -1019.609375 L 1666.777344 -770.523438 L 1496.128906 368.765625 L -166.820312 119.679688 Z M 3.828125 -1019.609375 " clip-rule="nonzero"/></clipPath><clipPath id="id109"><path d="M 3.828125 -1019.609375 L 1666.777344 -770.523438 L 1496.128906 368.765625 L -166.820312 119.679688 Z M 3.828125 -1019.609375 " clip-rule="nonzero"/></clipPath><clipPath id="id110"><path d="M 3.828125 -1019.609375 L 1666.777344 -770.523438 L 1496.128906 368.765625 L -166.820312 119.679688 Z M 3.828125 -1019.609375 " clip-rule="nonzero"/></clipPath><clipPath id="id111"><path d="M 50 40 L 57 40 L 57 48 L 50 48 Z M 50 40 " clip-rule="nonzero"/></clipPath><clipPath id="id112"><path d="M 3.828125 -1019.609375 L 1666.777344 -770.523438 L 1496.128906 368.765625 L -166.820312 119.679688 Z M 3.828125 -1019.609375 " clip-rule="nonzero"/></clipPath><clipPath id="id113"><path d="M 3.828125 -1019.609375 L 1666.777344 -770.523438 L 1496.128906 368.765625 L -166.820312 119.679688 Z M 3.828125 -1019.609375 " clip-rule="nonzero"/></clipPath><clipPath id="id114"><path d="M 3.828125 -1019.609375 L 1666.777344 -770.523438 L 1496.128906 368.765625 L -166.820312 119.679688 Z M 3.828125 -1019.609375 " clip-rule="nonzero"/></clipPath><clipPath id="id115"><path d="M 1311 76 L 1321 76 L 1321 94 L 1311 94 Z M 1311 76 " clip-rule="nonzero"/></clipPath><clipPath id="id116"><path d="M 3.828125 -1019.609375 L 1666.777344 -770.523438 L 1496.128906 368.765625 L -166.820312 119.679688 Z M 3.828125 -1019.609375 " clip-rule="nonzero"/></clipPath><clipPath id="id117"><path d="M 3.828125 -1019.609375 L 1666.777344 -770.523438 L 1496.128906 368.765625 L -166.820312 119.679688 Z M 3.828125 -1019.609375 " clip-rule="nonzero"/></clipPath><clipPath id="id118"><path d="M 3.828125 -1019.609375 L 1666.777344 -770.523438 L 1496.128906 368.765625 L -166.820312 119.679688 Z M 3.828125 -1019.609375 " clip-rule="nonzero"/></clipPath><clipPath id="id119"><path d="M 1333 13 L 1348 13 L 1348 35 L 1333 35 Z M 1333 13 " clip-rule="nonzero"/></clipPath><clipPath id="id120"><path d="M 3.828125 -1019.609375 L 1666.777344 -770.523438 L 1496.128906 368.765625 L -166.820312 119.679688 Z M 3.828125 -1019.609375 " clip-rule="nonzero"/></clipPath><clipPath id="id121"><path d="M 3.828125 -1019.609375 L 1666.777344 -770.523438 L 1496.128906 368.765625 L -166.820312 119.679688 Z M 3.828125 -1019.609375 " clip-rule="nonzero"/></clipPath><clipPath id="id122"><path d="M 3.828125 -1019.609375 L 1666.777344 -770.523438 L 1496.128906 368.765625 L -166.820312 119.679688 Z M 3.828125 -1019.609375 " clip-rule="nonzero"/></clipPath><clipPath id="id123"><path d="M 1489 0 L 1500 0 L 1500 3 L 1489 3 Z M 1489 0 " clip-rule="nonzero"/></clipPath><clipPath id="id124"><path d="M 3.828125 -1019.609375 L 1666.777344 -770.523438 L 1496.128906 368.765625 L -166.820312 119.679688 Z M 3.828125 -1019.609375 " clip-rule="nonzero"/></clipPath><clipPath id="id125"><path d="M 3.828125 -1019.609375 L 1666.777344 -770.523438 L 1496.128906 368.765625 L -166.820312 119.679688 Z M 3.828125 -1019.609375 " clip-rule="nonzero"/></clipPath><clipPath id="id126"><path d="M 3.828125 -1019.609375 L 1666.777344 -770.523438 L 1496.128906 368.765625 L -166.820312 119.679688 Z M 3.828125 -1019.609375 " clip-rule="nonzero"/></clipPath><clipPath id="id127"><path d="M 1262 60 L 1277 60 L 1277 75 L 1262 75 Z M 1262 60 " clip-rule="nonzero"/></clipPath><clipPath id="id128"><path d="M 3.828125 -1019.609375 L 1666.777344 -770.523438 L 1496.128906 368.765625 L -166.820312 119.679688 Z M 3.828125 -1019.609375 " clip-rule="nonzero"/></clipPath><clipPath id="id129"><path d="M 3.828125 -1019.609375 L 1666.777344 -770.523438 L 1496.128906 368.765625 L -166.820312 119.679688 Z M 3.828125 -1019.609375 " clip-rule="nonzero"/></clipPath><clipPath id="id130"><path d="M 3.828125 -1019.609375 L 1666.777344 -770.523438 L 1496.128906 368.765625 L -166.820312 119.679688 Z M 3.828125 -1019.609375 " clip-rule="nonzero"/></clipPath><clipPath id="id131"><path d="M 1448 53 L 1461 53 L 1461 68 L 1448 68 Z M 1448 53 " clip-rule="nonzero"/></clipPath><clipPath id="id132"><path d="M 3.828125 -1019.609375 L 1666.777344 -770.523438 L 1496.128906 368.765625 L -166.820312 119.679688 Z M 3.828125 -1019.609375 " clip-rule="nonzero"/></clipPath><clipPath id="id133"><path d="M 3.828125 -1019.609375 L 1666.777344 -770.523438 L 1496.128906 368.765625 L -166.820312 119.679688 Z M 3.828125 -1019.609375 " clip-rule="nonzero"/></clipPath><clipPath id="id134"><path d="M 3.828125 -1019.609375 L 1666.777344 -770.523438 L 1496.128906 368.765625 L -166.820312 119.679688 Z M 3.828125 -1019.609375 " clip-rule="nonzero"/></clipPath></defs><path fill="#3871c1" d="M 1384.945312 1069.953125 C 1396.414062 1065.699219 1373.785156 1065.746094 1380.382812 1046.566406 C 1387.121094 1027.277344 1324.566406 1040.492188 1329.714844 1022.898438 C 1335.109375 1005.140625 1384.46875 1032.167969 1398.542969 1031.011719 C 1413.003906 1030.039062 1419.613281 1024.027344 1420.507812 1010.414062 C 1422.4375 996.367188 1337.652344 891.761719 1375.265625 892.4375 C 1413.851562 892.667969 1430.527344 995.949219 1441.179688 1005.757812 C 1463.964844 1026.183594 1450.335938 987.101562 1463.765625 992.375 C 1475.773438 997.136719 1471.546875 1030.007812 1495.566406 1013.035156 C 1499.820312 1010.042969 1480.042969 986.609375 1490.957031 987.117188 C 1501.929688 987.609375 1505.894531 1007.914062 1511.472656 1014.574219 C 1521.125 1026.152344 1527.210938 1029.761719 1530.402344 1023.546875 C 1532.886719 1018.832031 1516.683594 954.324219 1531.28125 950.730469 C 1545.957031 947.078125 1544.769531 970.1875 1549.996094 973.71875 C 1572.195312 988.734375 1579.269531 938.90625 1584.402344 959.78125 C 1588.164062 976.109375 1552.972656 1025.367188 1575.292969 1048.230469 C 1584.078125 1057.359375 1631.742188 1036.542969 1662.527344 1033.246094 L 1662.527344 1062.832031 C 1632.589844 1065.898438 1587.546875 1058.296875 1583.429688 1061.691406 C 1576.847656 1067.855469 1582.953125 1085.648438 1589.890625 1089.101562 C 1596.394531 1092.371094 1614.214844 1067.765625 1622.246094 1095.253906 C 1630.230469 1122.804688 1604.363281 1101.453125 1601.558594 1105.953125 C 1598.570312 1110.902344 1600.234375 1116.5625 1604.996094 1121.601562 C 1611.347656 1128.277344 1637.507812 1122.480469 1636.566406 1135.183594 C 1635.703125 1147.890625 1606.199219 1142.507812 1597.644531 1148.011719 C 1592.21875 1151.527344 1590.089844 1154.996094 1593.867188 1157.433594 C 1603.734375 1163.707031 1658.839844 1147.613281 1649.066406 1184.027344 C 1644.828125 1200.847656 1607.386719 1167.824219 1590.199219 1166.390625 C 1570.589844 1164.679688 1573.289062 1193.738281 1577.09375 1215.324219 C 1580.609375 1231.40625 1637.476562 1301.863281 1609.898438 1302.957031 C 1582.722656 1303.929688 1576.941406 1233.808594 1561.742188 1216.898438 C 1548.039062 1201.710938 1545.1875 1206.519531 1540.609375 1217.265625 C 1536.96875 1225.777344 1532.082031 1261.578125 1520.199219 1246.976562 C 1508.234375 1232.4375 1523.171875 1221.214844 1509.777344 1212.734375 C 1500.636719 1207 1498.449219 1223.109375 1492.34375 1219.347656 C 1483.402344 1212.949219 1474.246094 1206.566406 1474.847656 1218.53125 C 1456.980469 1192.507812 1458.722656 1224.773438 1434.476562 1208.261719 C 1425.703125 1202.375 1425.210938 1174.605469 1420.125 1165.09375 C 1410.78125 1148.289062 1388.152344 1216.972656 1358.125 1174.269531 C 1345.34375 1156.277344 1404.121094 1161.179688 1404.402344 1148.429688 C 1404.664062 1137.914062 1382.742188 1148.414062 1364.550781 1134.136719 C 1352.234375 1124.5 1390.15625 1122.417969 1395.027344 1119.445312 C 1404.632812 1113.554688 1401.226562 1095.285156 1389.109375 1084.632812 C 1374 1071.621094 1325.414062 1138.917969 1315.777344 1110.425781 C 1305.882812 1081.917969 1374.941406 1073.5625 1384.945312 1069.953125 " fill-opacity="1" fill-rule="nonzero"/><path fill="#3871c1" d="M 1468.078125 896.753906 C 1462.960938 890.386719 1464.65625 887.953125 1457.058594 882.679688 C 1449.691406 877.578125 1446.699219 875.585938 1446.914062 867.722656 C 1447.101562 860.09375 1450.335938 855.542969 1460.171875 861.632812 C 1471.007812 868.355469 1478.839844 884.605469 1477.296875 893.949219 C 1477.28125 893.949219 1473.9375 904.0625 1468.078125 896.753906 " fill-opacity="1" fill-rule="nonzero"/><path fill="#3871c1" d="M 1435.675781 901.6875 C 1424.6875 902.398438 1425.179688 889.078125 1437.3125 892.347656 C 1437.636719 895.121094 1437.636719 897.941406 1436.511719 900.488281 C 1436.234375 900.886719 1435.953125 901.289062 1435.675781 901.6875 " fill-opacity="1" fill-rule="nonzero"/><path fill="#da1259" d="M 202.363281 824.554688 C 182.648438 830.863281 209.640625 841.839844 218.457031 851.753906 C 218.441406 851.765625 222.125 818.296875 202.363281 824.554688 " fill-opacity="1" fill-rule="nonzero"/><path fill="#da1259" d="M 257.011719 924.351562 C 261.914062 916.195312 267.292969 894.488281 251.199219 899.886719 C 235.167969 905.3125 257.058594 924.335938 257.011719 924.351562 " fill-opacity="1" fill-rule="nonzero"/><path fill="#da1259" d="M 100.734375 878.332031 C 109.074219 876.449219 115.316406 882.539062 107.5 887.503906 C 101.257812 891.46875 100.734375 878.332031 100.734375 878.332031 " fill-opacity="1" fill-rule="nonzero"/><path fill="#da1259" d="M 134.523438 881.121094 C 131.425781 884.453125 130.761719 898.652344 138.007812 892.761719 C 145.28125 886.871094 134.539062 881.121094 134.523438 881.121094 " fill-opacity="1" fill-rule="nonzero"/><path fill="#da1259" d="M 104.355469 820.269531 C 97.234375 820.347656 99.699219 829.503906 102.105469 832.914062 C 104.292969 833.175781 110.246094 841.191406 110.523438 832.296875 C 110.523438 832.296875 118.320312 820.117188 104.355469 820.269531 " fill-opacity="1" fill-rule="nonzero"/><path fill="#da1259" d="M 60.5625 920.652344 C 54.519531 914.484375 56.460938 911.261719 47.582031 906.945312 C 38.933594 902.738281 35.433594 901.132812 35.621094 891.992188 C 35.773438 883.09375 39.503906 877.082031 50.957031 881.878906 C 63.582031 887.152344 72.785156 904.125 71.167969 915.257812 C 71.167969 915.257812 67.453125 927.730469 60.5625 920.652344 " fill-opacity="1" fill-rule="nonzero"/><path fill="#ed1c24" d="M -1.699219 828.855469 C 0.550781 825.464844 15.332031 820.839844 4.25 818.1875 C -6.832031 815.550781 -3.257812 828.871094 -1.699219 828.855469 " fill-opacity="1" fill-rule="nonzero"/><path fill="#ed1c24" d="M 73.480469 797.851562 C 64.339844 791.175781 55.582031 782.882812 47.582031 775.113281 C 41.925781 769.578125 26.078125 756.980469 28.683594 749.273438 C 54.085938 755.316406 77.609375 774.234375 73.972656 796.882812 L 73.480469 797.851562 " fill-opacity="1" fill-rule="nonzero"/><path fill="#c83a43" d="M 428.6875 865.488281 C 421.457031 865.980469 415.910156 868.558594 416.601562 874.214844 C 425.359375 875.496094 455.757812 878.886719 464.574219 876.433594 C 464.589844 876.40625 438.800781 864.75 428.6875 865.488281 " fill-opacity="1" fill-rule="nonzero"/><path fill="#f68712" d="M 777.578125 856.363281 C 756.953125 857.332031 778.949219 874.894531 784.144531 886.703125 C 784.097656 886.71875 798.25 855.453125 777.578125 856.363281 " fill-opacity="1" fill-rule="nonzero"/><path fill="#f68712" d="M 821.789062 923.890625 C 828.863281 917.292969 840.640625 897.804688 824.039062 898.835938 C 807.46875 899.914062 821.820312 923.890625 821.789062 923.890625 " fill-opacity="1" fill-rule="nonzero"/><path fill="#f68712" d="M 688.125 890.914062 C 681.496094 889.140625 680.910156 898.621094 682.066406 902.535156 C 683.992188 903.355469 686.984375 912.636719 690.050781 904.140625 C 690.035156 904.140625 701.105469 894.410156 688.125 890.914062 " fill-opacity="1" fill-rule="nonzero"/><path fill="#da1259" d="M 296.195312 808.476562 C 304.953125 794.910156 315.203125 758.632812 287.023438 767.328125 C 258.9375 776.128906 296.304688 808.445312 296.195312 808.476562 " fill-opacity="1" fill-rule="nonzero"/><path fill="#c83a43" d="M 505.933594 733.253906 C 503.453125 744.894531 475.394531 738.019531 480.929688 725.050781 C 486.558594 712.070312 497.300781 718.175781 504.039062 721.613281 C 510.789062 725.019531 505.933594 733.238281 505.933594 733.253906 " fill-opacity="1" fill-rule="nonzero"/><path fill="#c83a43" d="M 455.21875 800.414062 C 453.953125 788.988281 474.78125 770.210938 452.9375 767.464844 C 431.0625 764.796875 445.246094 788.261719 450.996094 796.480469 C 452.398438 797.792969 453.800781 799.101562 455.21875 800.414062 " fill-opacity="1" fill-rule="nonzero"/><path fill="#c83a43" d="M 631.875 743.261719 C 631.164062 734.242188 625.523438 727.425781 612.191406 728.707031 C 608.472656 739.777344 599.363281 778.335938 604.945312 789.1875 C 604.867188 789.140625 632.785156 755.824219 631.875 743.261719 " fill-opacity="1" fill-rule="nonzero"/><path fill="#c83a43" d="M 549.652344 882.464844 C 527.484375 882.648438 536.039062 857.457031 558.3125 864.980469 C 557.3125 870.253906 555.679688 875.617188 552.007812 880.289062 C 551.238281 881.015625 550.4375 881.738281 549.652344 882.464844 " fill-opacity="1" fill-rule="nonzero"/><path fill="#c83a43" d="M 624.445312 879.75 C 625.910156 876.359375 639.503906 871.253906 627.867188 869.160156 C 616.210938 867.09375 622.933594 879.8125 624.445312 879.75 " fill-opacity="1" fill-rule="nonzero"/><path fill="#3871c1" d="M 1132.480469 843.027344 C 1114.195312 845.785156 1112.808594 823.953125 1133.773438 827.515625 C 1134.714844 832.003906 1135.160156 836.644531 1133.695312 840.945312 C 1133.296875 841.636719 1132.878906 842.332031 1132.480469 843.027344 " fill-opacity="1" fill-rule="nonzero"/><path fill="#3871c1" d="M 1441.691406 791.410156 C 1437.480469 787.078125 1440.195312 771.257812 1427.460938 778.765625 C 1414.804688 786.289062 1440.578125 792.703125 1441.691406 791.410156 " fill-opacity="1" fill-rule="nonzero"/><path fill="#80cc28" d="M 1019.515625 791.378906 C 1005.660156 782.25 1011.285156 766.078125 1031.402344 770.78125 C 1047.464844 774.558594 1019.472656 791.347656 1019.515625 791.378906 " fill-opacity="1" fill-rule="nonzero"/><path fill="#80cc28" d="M 984.785156 741.734375 C 995.761719 741.703125 1027.640625 724.929688 1005.765625 722.371094 C 983.816406 719.855469 984.785156 741.765625 984.785156 741.734375 " fill-opacity="1" fill-rule="nonzero"/><path fill="#f2ef1d" d="M 892.820312 860.664062 C 901.390625 869.835938 917.316406 854.652344 921.617188 847.003906 C 919.628906 843.796875 929.261719 825.449219 910.394531 836.71875 C 910.347656 836.675781 875.941406 842.640625 892.820312 860.664062 " fill-opacity="1" fill-rule="nonzero"/><path fill="#f2ef1d" d="M 972.378906 895.492188 C 964.992188 899.222656 936.476562 894.289062 951.074219 908.535156 C 965.5625 922.765625 974.828125 896.863281 972.378906 895.492188 " fill-opacity="1" fill-rule="nonzero"/><path fill="#f68712" d="M 839.347656 736.292969 C 827.660156 733.792969 828.324219 749.335938 830.992188 755.6875 C 834.429688 756.921875 841.148438 771.9375 844.925781 757.828125 C 844.894531 757.84375 862.191406 741.285156 839.347656 736.292969 " fill-opacity="1" fill-rule="nonzero"/><path fill="#80cc28" d="M 1111.296875 893.179688 C 1124.726562 894.132812 1118.714844 912.589844 1103.730469 909.722656 C 1088.746094 906.855469 1094.851562 899.636719 1098.226562 895.105469 C 1101.601562 890.558594 1111.296875 893.179688 1111.296875 893.179688 " fill-opacity="1" fill-rule="nonzero"/><path fill="#80cc28" d="M 1160.316406 903.03125 C 1158.113281 892.222656 1175.210938 875.324219 1155.046875 871.886719 C 1134.867188 868.527344 1150.113281 891.160156 1156.125 899.144531 C 1157.527344 900.441406 1158.929688 901.734375 1160.316406 903.03125 " fill-opacity="1" fill-rule="nonzero"/><g clip-path="url(#id1)"><g clip-path="url(#id2)"><g clip-path="url(#id3)"><g clip-path="url(#id4)"><path fill="#80cc28" d="M 175.996094 -399.203125 C 170.359375 -410.476562 106.339844 -455.421875 135.9375 -461.136719 C 180.199219 -469.519531 209.214844 -424.09375 218.226562 -444.710938 C 229.738281 -470.050781 121.207031 -526.371094 159.730469 -547.445312 C 252.96875 -596.851562 229.578125 -436.417969 261.347656 -458.410156 C 279.214844 -470.511719 307.175781 -522.632812 328.960938 -522.78125 C 389.554688 -522.949219 353.105469 -465.335938 412.101562 -490.21875 C 398.503906 -469.042969 421.507812 -468.933594 444.316406 -468.558594 C 459.292969 -467.171875 445.925781 -435.28125 468.3125 -433.316406 C 501.363281 -430.238281 486.824219 -470.734375 524.597656 -479.839844 C 562.433594 -488.714844 530.855469 -418.898438 528.019531 -399.132812 C 524.234375 -373.980469 523.824219 -362.066406 564.933594 -368.878906 C 609.6875 -376.613281 703.941406 -485.667969 753.03125 -439.808594 C 800.335938 -395.167969 612.921875 -369.285156 590.222656 -344.28125 C 558.898438 -313.195312 522.851562 -267.242188 558.394531 -243.335938 C 589.050781 -223.109375 691.429688 -221.789062 679.394531 -188.046875 C 654.199219 -116.414062 578.9375 -220.539062 554.835938 -223.230469 C 545.714844 -224.332031 545.613281 -215.539062 551.015625 -202.289062 C 559.605469 -181.703125 615.488281 -149.558594 602.796875 -127.683594 C 590.382812 -105.894531 552.789062 -151.0625 534.917969 -148.296875 C 521.53125 -146.25 512.757812 -138.878906 512.535156 -126.660156 C 512.402344 -115.78125 578.289062 -116.625 535.578125 -81.851562 C 493.386719 -46.90625 489.910156 -110.375 475.558594 -113.304688 C 460.425781 -116.351562 432.417969 -93.375 437.066406 -74.765625 C 441.96875 -60.671875 635.925781 41.589844 589.957031 87.066406 C 546.851562 131.871094 445.589844 -68.59375 410.378906 -61.519531 C 351.929688 -47.921875 361.605469 77.714844 340.300781 100.914062 C 313.179688 131.507812 348.164062 37.492188 299.699219 39.601562 C 288.230469 40.191406 269.542969 82.335938 250.277344 60.804688 C 230.257812 39.175781 313.15625 -59.496094 314.351562 -70.199219 C 315.015625 -84.816406 301.738281 -85.355469 275.777344 -75.007812 C 260.761719 -69.042969 236.589844 -36.292969 218.976562 -46.679688 C 201.160156 -57.191406 252.914062 -79.507812 248.960938 -89.316406 C 225.308594 -146.296875 203.316406 -81.0625 180.480469 -84.375 C 154.738281 -87.980469 209.257812 -147.6875 155.722656 -132.433594 C 128.582031 -125.429688 23.980469 56.777344 -31.285156 26.441406 C -90.863281 -5.789062 113.808594 -137.308594 126.390625 -162.097656 C 136.011719 -189.074219 130.28125 -207.441406 107.488281 -223.839844 C 84.949219 -241.121094 -15.351562 -234.054688 -11 -274.246094 C -6.460938 -314.941406 85.992188 -228.308594 90.167969 -272.40625 C 94.542969 -316.820312 132.398438 -293.472656 116.75 -313.558594 C 103.515625 -331.457031 -6.957031 -416.738281 31.65625 -464.628906 C 71.726562 -512.050781 100.496094 -327.636719 135.953125 -337.902344 C 165.300781 -345.898438 187.320312 -377.191406 175.996094 -399.203125 " fill-opacity="1" fill-rule="nonzero"/></g></g></g></g><g clip-path="url(#id5)"><g clip-path="url(#id6)"><g clip-path="url(#id7)"><g clip-path="url(#id8)"><path fill="#f2ef1d" d="M 473.976562 8.601562 C 467.96875 15.824219 454.589844 67.976562 443.605469 52.566406 C 427.078125 29.808594 448.980469 -2.484375 433.160156 -0.613281 C 413.65625 1.933594 405.597656 82.789062 382.347656 68.269531 C 326.246094 34.269531 434.917969 -10.359375 412.644531 -20.460938 C 399.816406 -26.484375 358.308594 -22.550781 351.972656 -34.242188 C 334.050781 -67.167969 382.191406 -69.90625 348.339844 -92.40625 C 366.222656 -93.375 359.375 -106.042969 352.492188 -118.691406 C 348.675781 -127.445312 373.804688 -132.972656 368.054688 -146.101562 C 359.46875 -165.566406 337.589844 -141.046875 319.382812 -157.382812 C 300.949219 -173.863281 357.039062 -186.710938 371.347656 -193.046875 C 389.347656 -201.359375 397.734375 -206.042969 379.207031 -226.058594 C 358.492188 -248.960938 253.121094 -249.261719 264.070312 -294.78125 C 275.445312 -341.0625 363.558594 -253.859375 387.101562 -250.457031 C 418.984375 -246.351562 462.875 -243.628906 467.710938 -273.929688 C 472.027344 -300.140625 435.21875 -359.71875 463.390625 -367.050781 C 524.527344 -382.277344 476.820312 -294.683594 483.066406 -279.890625 C 485.394531 -274.085938 491.609375 -277.503906 499.21875 -285.9375 C 511.085938 -299.09375 514.625 -345.410156 535.046875 -346.574219 C 555.4375 -347.636719 535.484375 -307.035156 543.457031 -297.316406 C 549.445312 -289.949219 557.636719 -287.382812 566.636719 -291.800781 C 574.824219 -295.78125 551.921875 -336.332031 592.039062 -322.996094 C 632 -309.433594 585.738281 -283.75 588.316406 -273.773438 C 590.90625 -263.285156 616.304688 -253.773438 628.703125 -263.1875 C 638.910156 -270.65625 651.460938 -433.210938 702.988281 -420.613281 C 752.875 -407.65625 629.554688 -270.109375 646.503906 -250.578125 C 672.953125 -217.695312 765.375 -263.839844 789.949219 -255.6875 C 820.65625 -246.003906 738.652344 -241.949219 752.984375 -209.09375 C 756.332031 -201.496094 793.121094 -200.664062 781.167969 -180.925781 C 769.414062 -161.765625 675.332031 -188.609375 666.957031 -184.9375 C 656.03125 -180.679688 659.296875 -171.898438 673.5 -157.96875 C 681.6875 -149.992188 711.691406 -143.519531 708.203125 -128.46875 C 704.8125 -113.511719 676.078125 -141.574219 669.820312 -135.792969 C 634.574219 -102.894531 686.992188 -108.183594 689.828125 -91.625 C 693.035156 -73.496094 637.882812 -92.296875 661.15625 -61.292969 C 672.554688 -48.113281 824.519531 -20.90625 810.953125 28.363281 C 799.164062 75.222656 669.238281 -35.859375 646.917969 -33.480469 C 625.886719 -32.09375 614.515625 -22.867188 608.4375 -3.511719 C 602.113281 15.804688 627.933594 78.695312 600.003906 86.484375 C 572.03125 94.78125 610.148438 11.789062 579.292969 21.632812 C 548.445312 31.851562 555.296875 1.496094 545.457031 17.25 C 536.511719 31.5 505.566406 123.410156 466.34375 114.605469 C 426.03125 105.882812 539.046875 31.535156 524.574219 12.9375 C 512.140625 -2.597656 485.589844 -5.464844 473.976562 8.601562 " fill-opacity="1" fill-rule="nonzero"/></g></g></g></g><g clip-path="url(#id9)"><g clip-path="url(#id10)"><g clip-path="url(#id11)"><g clip-path="url(#id12)"><path fill="#eea427" d="M 667.746094 -195.40625 C 666.503906 -195.761719 538.546875 -67.75 507.125 -42.042969 C 474.25 -16.644531 483.886719 11.941406 497.171875 8.488281 C 511.90625 5.644531 496.207031 -27.757812 654.019531 -162.789062 C 658.5625 -173.660156 663.136719 -184.527344 667.746094 -195.40625 " fill-opacity="1" fill-rule="nonzero"/></g></g></g></g><g clip-path="url(#id13)"><g clip-path="url(#id14)"><g clip-path="url(#id15)"><g clip-path="url(#id16)"><g clip-path="url(#id17)"><g clip-path="url(#id18)"><path fill="#ed1c24" d="M 1559.046875 -51.410156 C 1555.257812 -57.027344 1546.757812 -59.5 1558.738281 -69.554688 C 1559.878906 -70.492188 1561 -71.226562 1562.109375 -71.871094 L 1591.628906 -268.941406 C 1590.25 -269.726562 1588.902344 -270.613281 1587.636719 -271.644531 C 1577.527344 -280.828125 1631.148438 -404.886719 1569.382812 -381.089844 C 1510.171875 -357.296875 1562.980469 -275.292969 1550.53125 -261.488281 C 1527.609375 -232.386719 1522.484375 -268.417969 1504.253906 -255.871094 C 1488.234375 -244.550781 1517.5 -224.640625 1466.679688 -220.109375 C 1457.84375 -219.296875 1473.800781 -249.019531 1456.3125 -241.226562 C 1438.933594 -233.429688 1446.492188 -216.570312 1441.792969 -208.074219 C 1433.707031 -193.324219 1426.011719 -186.496094 1416.789062 -188.59375 C 1410.339844 -190.199219 1391.996094 -246.386719 1365.292969 -238.585938 C 1339.1875 -230.804688 1357.484375 -215.589844 1351.367188 -209.382812 C 1325.863281 -183.039062 1280.164062 -212.394531 1286.28125 -194.125 C 1291.546875 -180.054688 1381.558594 -171.40625 1358.96875 -139.027344 C 1345.71875 -121.214844 1159.128906 -82.613281 1170.347656 -53.867188 C 1179.59375 -26.417969 1340.191406 -123.757812 1353.785156 -123.558594 C 1368.390625 -124.085938 1368.859375 -107.023438 1359.335938 -99.421875 C 1350.363281 -92.269531 1306.902344 -96.207031 1309.308594 -70.546875 C 1311.40625 -44.898438 1342.425781 -79.878906 1349.566406 -78.734375 C 1357.3125 -77.496094 1357.660156 -72.203125 1352.527344 -65.007812 C 1345.5625 -55.542969 1298.945312 -39.4375 1307.242188 -31.054688 C 1315.316406 -22.722656 1361.683594 -49.339844 1378.867188 -51.769531 C 1389.734375 -53.339844 1395.136719 -52.484375 1390.066406 -47.878906 C 1376.660156 -36.308594 1276.746094 -4.867188 1310.921875 13.800781 C 1326.21875 22.40625 1373.023438 -30.539062 1400.820312 -44.226562 C 1432.792969 -60.15625 1443.132812 -37.3125 1446.679688 -18.945312 C 1449.207031 -5.222656 1382.101562 89.90625 1428.476562 69.601562 C 1475.457031 49.296875 1456.429688 -5.886719 1473.261719 -29.183594 C 1489.132812 -50.128906 1496.214844 -48.707031 1508.960938 -44.304688 C 1519.289062 -40.824219 1543.40625 -18.597656 1556.949219 -37.617188 L 1556.992188 -37.703125 L 1559.046875 -51.410156 " fill-opacity="1" fill-rule="nonzero"/></g></g></g></g></g></g><g clip-path="url(#id19)"><g clip-path="url(#id20)"><g clip-path="url(#id21)"><g clip-path="url(#id22)"><path fill="#80cc28" d="M 97.09375 28.601562 C 93.648438 27.882812 91.296875 25.984375 92.355469 22.558594 C 96.785156 22.226562 112.035156 22.078125 115.953125 24.238281 C 115.9375 24.234375 101.851562 29.609375 97.09375 28.601562 " fill-opacity="1" fill-rule="nonzero"/></g></g></g></g><g clip-path="url(#id23)"><g clip-path="url(#id24)"><g clip-path="url(#id25)"><g clip-path="url(#id26)"><path fill="#80cc28" d="M 165.171875 21.976562 C 164.601562 16.636719 166.921875 3.3125 173.402344 8.335938 C 179.851562 13.355469 165.15625 21.972656 165.171875 21.976562 " fill-opacity="1" fill-rule="nonzero"/></g></g></g></g><g clip-path="url(#id27)"><g clip-path="url(#id28)"><g clip-path="url(#id29)"><g clip-path="url(#id30)"><path fill="#c83a43" d="M 1168.972656 134.074219 C 1175.898438 139.570312 1186.414062 135.84375 1182.207031 127.21875 C 1178.8125 120.316406 1168.960938 134.058594 1168.972656 134.074219 " fill-opacity="1" fill-rule="nonzero"/></g></g></g></g><g clip-path="url(#id31)"><g clip-path="url(#id32)"><g clip-path="url(#id33)"><g clip-path="url(#id34)"><path fill="#f36820" d="M 1077.757812 82.996094 C 1076.957031 78.136719 1086.199219 62.640625 1089.359375 72.015625 C 1092.476562 81.398438 1077.742188 82.996094 1077.757812 82.996094 " fill-opacity="1" fill-rule="nonzero"/></g></g></g></g><g clip-path="url(#id35)"><g clip-path="url(#id36)"><g clip-path="url(#id37)"><g clip-path="url(#id38)"><path fill="#c83a43" d="M 1146.605469 181.640625 C 1139.835938 178.644531 1148.566406 169.898438 1153.296875 167.253906 C 1155.558594 167.859375 1166.949219 161.847656 1160.96875 171.398438 C 1160.964844 171.410156 1159.832031 187.515625 1146.605469 181.640625 " fill-opacity="1" fill-rule="nonzero"/></g></g></g></g><g clip-path="url(#id39)"><g clip-path="url(#id40)"><g clip-path="url(#id41)"><g clip-path="url(#id42)"><path fill="#f2ef1d" d="M 375.101562 101.140625 C 373.925781 105.453125 381.238281 117.726562 370.515625 114.0625 C 359.761719 110.425781 373.890625 100.273438 375.101562 101.140625 " fill-opacity="1" fill-rule="nonzero"/></g></g></g></g><g clip-path="url(#id43)"><g clip-path="url(#id44)"><g clip-path="url(#id45)"><g clip-path="url(#id46)"><path fill="#f36820" d="M 1235.589844 0.0703125 C 1226.636719 -4.171875 1223.097656 11.855469 1233.816406 15.238281 C 1244.542969 18.636719 1243.511719 10.96875 1243.160156 6.332031 C 1242.8125 1.679688 1235.589844 0.0703125 1235.589844 0.0703125 " fill-opacity="1" fill-rule="nonzero"/></g></g></g></g><g clip-path="url(#id47)"><g clip-path="url(#id48)"><g clip-path="url(#id49)"><g clip-path="url(#id50)"><path fill="#f36820" d="M 1193.121094 -19.324219 C 1200.917969 -13.730469 1220.367188 -15.058594 1215.921875 -3.59375 C 1211.492188 7.855469 1198.980469 -9.21875 1194.726562 -15.59375 C 1194.195312 -16.824219 1193.664062 -18.074219 1193.121094 -19.324219 " fill-opacity="1" fill-rule="nonzero"/></g></g></g></g><g clip-path="url(#id51)"><g clip-path="url(#id52)"><g clip-path="url(#id53)"><g clip-path="url(#id54)"><path fill="#eea427" d="M 850.628906 86.171875 C 857.851562 82.59375 857.800781 72.3125 848.554688 72.441406 C 841.199219 72.539062 850.644531 86.175781 850.628906 86.171875 " fill-opacity="1" fill-rule="nonzero"/></g></g></g></g><g clip-path="url(#id55)"><g clip-path="url(#id56)"><g clip-path="url(#id57)"><g clip-path="url(#id58)"><path fill="#eea427" d="M 966.683594 148.96875 C 962 147.550781 950.90625 133.492188 960.558594 134.816406 C 970.253906 136.160156 966.683594 148.96875 966.683594 148.96875 " fill-opacity="1" fill-rule="nonzero"/></g></g></g></g><g clip-path="url(#id59)"><g clip-path="url(#id60)"><g clip-path="url(#id61)"><g clip-path="url(#id62)"><path fill="#eea427" d="M 674.128906 14.746094 C 675.402344 24.960938 679.339844 26.5625 677.234375 37.097656 C 675.199219 47.332031 674.371094 51.417969 682.023438 59.859375 C 689.457031 68.082031 696.644531 71.074219 700.097656 58.324219 C 703.917969 44.273438 696.089844 21.511719 685.636719 12.117188 C 685.648438 12.121094 672.667969 3.050781 674.128906 14.746094 " fill-opacity="1" fill-rule="nonzero"/></g></g></g></g><g clip-path="url(#id63)"><g clip-path="url(#id64)"><g clip-path="url(#id65)"><g clip-path="url(#id66)"><path fill="#eea427" d="M 638.835938 30.175781 C 627.984375 36.640625 641.476562 50.621094 649.488281 39.175781 C 647.082031 35.996094 644.3125 32.929688 640.796875 30.921875 C 640.148438 30.667969 639.496094 30.433594 638.835938 30.175781 " fill-opacity="1" fill-rule="nonzero"/></g></g></g></g><g clip-path="url(#id67)"><g clip-path="url(#id68)"><g clip-path="url(#id69)"><g clip-path="url(#id70)"><path fill="#eea427" d="M 826.582031 124.132812 C 829.917969 127.671875 832.253906 145.277344 824.75 139.386719 C 817.214844 133.484375 826.566406 124.128906 826.582031 124.132812 " fill-opacity="1" fill-rule="nonzero"/></g></g></g></g><g clip-path="url(#id71)"><g clip-path="url(#id72)"><g clip-path="url(#id73)"><g clip-path="url(#id74)"><path fill="#f2ef1d" d="M 448.578125 198.355469 C 443.714844 205.839844 437.109375 209.667969 429.863281 203.9375 C 432.953125 193.082031 446.265625 156.554688 455.171875 149.238281 C 455.1875 149.238281 455.378906 187.914062 448.578125 198.355469 " fill-opacity="1" fill-rule="nonzero"/></g></g></g></g><g clip-path="url(#id75)"><g clip-path="url(#id76)"><g clip-path="url(#id77)"><g clip-path="url(#id78)"><path fill="#eea427" d="M 885.453125 24.976562 C 879.050781 12.234375 861.949219 25.902344 874.289062 35.917969 C 878.105469 33.542969 881.824219 30.765625 884.4375 27.070312 C 884.773438 26.375 885.113281 25.675781 885.453125 24.976562 " fill-opacity="1" fill-rule="nonzero"/></g></g></g></g><g clip-path="url(#id79)"><g clip-path="url(#id80)"><g clip-path="url(#id81)"><g clip-path="url(#id82)"><path fill="#eea427" d="M 618.519531 136.976562 C 605.738281 137.292969 599.101562 152.664062 612.210938 158.792969 C 622.660156 163.753906 618.539062 136.964844 618.519531 136.976562 " fill-opacity="1" fill-rule="nonzero"/></g></g></g></g><g clip-path="url(#id83)"><g clip-path="url(#id84)"><g clip-path="url(#id85)"><g clip-path="url(#id86)"><path fill="#eea427" d="M 570.972656 159.382812 C 576.78125 164.523438 583.207031 192.796875 570.605469 184.535156 C 557.945312 176.324219 570.945312 159.375 570.972656 159.382812 " fill-opacity="1" fill-rule="nonzero"/></g></g></g></g><g clip-path="url(#id87)"><g clip-path="url(#id88)"><g clip-path="url(#id89)"><g clip-path="url(#id90)"><path fill="#f2ef1d" d="M 668.183594 109.074219 C 678.59375 106.066406 677.957031 125.707031 675.558594 133.71875 C 672.492188 135.238281 666.511719 154.15625 663.207031 136.265625 C 663.285156 136.261719 647.878906 115.074219 668.183594 109.074219 " fill-opacity="1" fill-rule="nonzero"/></g></g></g></g><g clip-path="url(#id91)"><g clip-path="url(#id92)"><g clip-path="url(#id93)"><g clip-path="url(#id94)"><path fill="#f2ef1d" d="M 767.738281 92.933594 C 766.269531 85.773438 746.277344 73.566406 764.683594 70.648438 C 783.144531 67.800781 770.070312 93.28125 767.738281 92.933594 " fill-opacity="1" fill-rule="nonzero"/></g></g></g></g><g clip-path="url(#id95)"><g clip-path="url(#id96)"><g clip-path="url(#id97)"><g clip-path="url(#id98)"><path fill="#f2ef1d" d="M 535.925781 116.046875 C 527.9375 113.195312 536.84375 100.65625 541.933594 96.554688 C 544.570312 96.949219 556.859375 87.535156 551.097656 100.71875 C 551.097656 100.71875 551.554688 121.597656 535.925781 116.046875 " fill-opacity="1" fill-rule="nonzero"/></g></g></g></g><g clip-path="url(#id99)"><g clip-path="url(#id100)"><g clip-path="url(#id101)"><g clip-path="url(#id102)"><path fill="#f36820" d="M 1028.433594 25.285156 C 1018.890625 30.703125 1013.390625 51.921875 1001.65625 41.699219 C 989.816406 31.476562 1014.359375 26.3125 1023.441406 25.085938 C 1025.117188 25.148438 1026.777344 25.210938 1028.433594 25.285156 " fill-opacity="1" fill-rule="nonzero"/></g></g></g></g><g clip-path="url(#id103)"><g clip-path="url(#id104)"><g clip-path="url(#id105)"><g clip-path="url(#id106)"><path fill="#80cc28" d="M 199.339844 62.152344 C 193.601562 68.078125 197.378906 77.636719 206.171875 74.292969 C 213.242188 71.609375 199.351562 62.15625 199.339844 62.152344 " fill-opacity="1" fill-rule="nonzero"/></g></g></g></g><g clip-path="url(#id107)"><g clip-path="url(#id108)"><g clip-path="url(#id109)"><g clip-path="url(#id110)"><path fill="#80cc28" d="M 187.289062 93.257812 C 192.246094 92.847656 207.621094 102.070312 198.097656 104.261719 C 188.585938 106.46875 187.289062 93.257812 187.289062 93.257812 " fill-opacity="1" fill-rule="nonzero"/></g></g></g></g><g clip-path="url(#id111)"><g clip-path="url(#id112)"><g clip-path="url(#id113)"><g clip-path="url(#id114)"><path fill="#80cc28" d="M 52.773438 47.152344 C 59.226562 47.464844 57.632812 38.03125 50.878906 40.554688 C 50.976562 42.519531 51.265625 44.527344 52.152344 46.3125 L 52.773438 47.152344 " fill-opacity="1" fill-rule="nonzero"/></g></g></g></g><g clip-path="url(#id115)"><g clip-path="url(#id116)"><g clip-path="url(#id117)"><g clip-path="url(#id118)"><path fill="#da1259" d="M 1316.289062 76.820312 C 1320.117188 80.511719 1323.464844 98.425781 1314.980469 92.230469 C 1306.457031 86.058594 1316.273438 76.820312 1316.289062 76.820312 " fill-opacity="1" fill-rule="nonzero"/></g></g></g></g><g clip-path="url(#id119)"><g clip-path="url(#id120)"><g clip-path="url(#id121)"><g clip-path="url(#id122)"><path fill="#da1259" d="M 1341.097656 13.269531 C 1348.394531 12.117188 1347.785156 24.21875 1346.007812 29 C 1343.855469 29.738281 1339.421875 41.015625 1337.308594 29.742188 C 1337.339844 29.746094 1326.84375 15.609375 1341.097656 13.269531 " fill-opacity="1" fill-rule="nonzero"/></g></g></g></g><g clip-path="url(#id123)"><g clip-path="url(#id124)"><g clip-path="url(#id125)"><g clip-path="url(#id126)"><path fill="#da1259" d="M 1496.917969 2.15625 C 1495.941406 -2.433594 1482.050781 -11.699219 1494.96875 -11.980469 C 1507.925781 -12.21875 1498.570312 2.574219 1496.917969 2.15625 " fill-opacity="1" fill-rule="nonzero"/></g></g></g></g><g clip-path="url(#id127)"><g clip-path="url(#id128)"><g clip-path="url(#id129)"><g clip-path="url(#id130)"><path fill="#f68712" d="M 1264.328125 73.152344 C 1258.996094 70.75 1265.601562 63.804688 1269.222656 61.695312 C 1270.988281 62.179688 1279.71875 57.375 1275.273438 65.003906 C 1275.273438 65.003906 1274.769531 77.835938 1264.328125 73.152344 " fill-opacity="1" fill-rule="nonzero"/></g></g></g></g><g clip-path="url(#id131)"><g clip-path="url(#id132)"><g clip-path="url(#id133)"><g clip-path="url(#id134)"><path fill="#ed1c24" d="M 1452.398438 65.5625 C 1457.621094 70.867188 1465.074219 60.851562 1458.1875 55.625 C 1451.296875 50.433594 1449.824219 55.996094 1448.710938 59.273438 C 1447.609375 62.570312 1452.398438 65.5625 1452.398438 65.5625 " fill-opacity="1" fill-rule="nonzero"/></g></g></g></g></svg>